<mxfile host="app.diagrams.net" agent="Mozilla/5.0 (Windows NT 10.0; Win64; x64) AppleWebKit/537.36 (KHTML, like Gecko) Chrome/127.0.0.0 Safari/537.36" version="24.7.6">
  <diagram name="Page-1" id="jQIs8dSg-mUryJcSndWp">
    <mxGraphModel dx="1101" dy="612" grid="1" gridSize="10" guides="1" tooltips="1" connect="1" arrows="1" fold="1" page="1" pageScale="1" pageWidth="2000" pageHeight="2500" math="0" shadow="0">
      <root>
        <mxCell id="0" />
        <mxCell id="1" parent="0" />
        <mxCell id="sLUFw-evy7mvADKt9X_3-52" value="" style="rounded=0;whiteSpace=wrap;html=1;" vertex="1" parent="1">
          <mxGeometry x="470" y="131" width="780" height="469" as="geometry" />
        </mxCell>
        <mxCell id="sLUFw-evy7mvADKt9X_3-9" value="" style="rounded=1;whiteSpace=wrap;html=1;strokeColor=#d6b656;strokeWidth=3;fillColor=none;" vertex="1" parent="1">
          <mxGeometry x="710" y="191" width="490" height="370" as="geometry" />
        </mxCell>
        <mxCell id="sLUFw-evy7mvADKt9X_3-3" value="" style="shape=image;verticalLabelPosition=bottom;labelBackgroundColor=default;verticalAlign=top;aspect=fixed;imageAspect=0;image=data:image/png,iVBORw0KGgoAAAANSUhEUgAAALcAAAC2CAIAAAAUUIttAAAgAElEQVR4Ae2dB1jT1/r4xdFqq7bVamtrb22vvZ3WTttea2tbyd6LACFh7yl777333qC4J1UcqGyQDbJlJoCCLCFM2/8vfO/NnweTb0ISCHjjk8fnfNcZ7/lwxnve8551vbJ/MgkIksA6QS/Inssk0CujRAaBYAnIKBEsI9kbMkpkDAiWgIwSwTKSvSGjRMaAYAnIKBEsI9kbMkpkDAiWwIpS0tXV1djYdO3azeTkTP+AcGcXH1Mze5qKHomsjsHSIFCyPIQk+3ElAIVRyBQNdQ1jE1M7N3f/yKiErKzzd+8WNDQ09fQwBdet5N5YXkpYLFZXV1d1dU1u7r3Ll/9MTz8VERHv7hFgZeViYGilqWVKU9HDExhojDICqSijhMsHEIDCyBgsjUxRp6noaescNzWzt7P38PUNjYpOOnHy7I0buRUVVc3NLR0dnZLjgXdMy0IJi8ViMpkdHZ0tLS1VVTVnz17y8Qk1NbNXVNJeJAjZpQgSQCAVVej6Li6+GRlnbt66W1lZ3db2sKuri8Vi8a5kse8uCyU9PT0dHR25uXmJiel29h7aOsepiloEoioSpSiCUGSfLJIAFEZBoZUUqJpq6sa6ehbOLr7JKScKC0taW9vE5oF3BBKmhMlkVlfX3rp1N+vUeV+/UENDazyBAUdQF5VTdilBCZApGsYmtkHB0WfOXiouLm1paeVd1WLclSQlLBaro6Pz7NlLjo5eBAIDgZTBsaKDcTU1o/Dw+MLCEiaTKdneRzKUMJnM1ta2GzdyA4MiTUztFJW04QiqbDQqwQZDmKiwOBU1NSNbO4+kpMzq6trOTomNaiVAycOH7RUV1Vev5vj6hSkqaSNRSsIUSfbOMkkAg1XRN7BKS8vKyy9qbm7p6ekRo6v5z6cSoKS0tDwtLcvAwAqHp0NhFFkTskzVL2S0ECgZiVIkUzT8/cPv3Ml7+PChlClpbW3Lzc2LjEzQN7AiEFVhcAUhSyJ7bVklAIWR4QiqmpqRi4vvmbOXKiqqxARF9LaktbUtL68wJCRaS8tsWcssi1xkCeAJDFs791OnLzQ0NHZ1dYnMiuiU5ObmhYRE01T0ZFoQkWtxuT+EwihYnIqVtWtW1rm6uvoVpaS9vaOioioqKlFLy0yGyHLXtPjxUxW1rG1cL17Krqt7IBooS25LAL1Z1qnzxsa24hdAFsPKSACDpXl5B1/Pud3Tw1GmLJWVJVPS2tqWnZ1jaGhNIKquTAllqYgvAThCgaaiFxIS09DQ2Nm55AHK0ihhsVjXrt3y9ArGExiyGY34lbdiMUCgZARS0dDIJiPzdFVVzTK2JUwms729w9s7hEBUhcJktiArqn2XCE84PF1Ty/TPP290dy9N1baEtqS6uvbs2UtGxjYyWxCJ1NnKRwJHKODw9MCgyNzcvCWBIhQlLBars7Prxo1cOzsPBarWyhdPlqKkJACFkfUNrOLj09raHgq/IigUJUwms6mpOTEpAwIlyxTwkqowacWDxig7OHjW1dULr2cTipKOjs7LV645OftIq2CydCUoARhcQVfP4vTpC8IPYwVT0tPT8+BBY3BIjJq6sQTzKotKihJQoGo6u/jevHlHSEsUwZS0t3cUFZWamNrJTM6kWK+STRqJUqQoaGZmnu7s7BRmdCKYktra+gsXsjU1TSWbUVlsUpQAoD7x9Q29dy9fGBN8wZQUFJZERCTQVPSkWCpZ0sshAVMz+7S0rObmFoFKNsGUXLh41WDeyHk5MiqLU4oSUFM3DgqOamhoFJeStraHSUkZJLIaAinbJLH2lK3gCBKIDBtbt8qqanEpqaysDgmJAU9M9nTtSkBL2ywvr0BcSrKzb7i6+a9dKchyDi4BFbr+yZPnxKUkKSnT0soFPCXZ07UrAUUl7dCwWHEp8fML09e3XLtSkOUcXAIksrqrm5+4lNjYuKmqGYGnJHu6diVAIDKsrF3EpURX11yBqrl2pSDLObgEMFianr6luJQo03TxBAZ4SrKna1cCSJQSVVFbXEqwWBWZpmTtQiAw53CEAoGoKi4lApORvbCmJTDvCkVZRsmLpjCVOJRQGFlGiYwSwRJ4ASmBQEgwKBEJx2OROBwKS0BhSGg0GbP4R8Kg8SgMBolDI/BIOB4KJUr8r1BghBAoGQZXQGOUsTgVPIFBJKmRyOpkisbCH4msTiCq4gkMLE4FhVaSit+XF5ASGIxIwmB0qfKOGofdtX8M0P8uyuRggvmBFIvPF/6iTQ/66X9vo3bERPk3Xao8DoUVWKkSfwGYQZiY2js4env7hIaFJ8TGpScln1z4i4lNDQiM8vYJdXTyNjSyVlLWRaGVoTCKxDMDEuGapwQKJSJgBEUcUpcqb0H/1V37xzCjr5PMvzhn/9Ft93/c89xb4runOnBXffDOxpAdC3/VgbuKfN7Jcdt32emf5+w/Sjh+INDgOxfNn4yVf1chwvEoLAJGABGcaI8wWJoyTVffwMrWztPXNzw8IiE19dTlyzk3b97LLyi9X15TU/Og/kHzwl91dX1xSXl+fsnNW/cuXMhOSzsdGZnk7RNqZ+9lbGLHUDVcAU3EWqUEAiEBfOBQWCU80lHjcKL5gRzXfa1hr0+mbHyWIfd35rql/kYSX34QvPOM3b+8dH8wUDxGxaFQcDwcRoCI1xkB3QoSpYTGKGtomri4+qelny4oLOvrezwxwZ6be7bUH5s91dXNLC6pOH3msq9fmL6BFQargkQpLt9myrVKCQqBV8QhHdUPp1h8nue1ty7ozc7I7Y9iXxlP3jSXIffX0hH5O3PdTPr60aSXmNFbm0J3VAfuznb+MML4K1PabwpYlGgthzyEBMwkDQxtAgKjMk+cy71T8OBBU0dnz+PHTyYmJmdmZpeKyNzcs5mZ2afjEwMDQ93drMbG1uKS8qtXb/j5R2jrmC8TKGuMEiiUiEHitCgQR43D0aYHc1z3NYe+MZm6cS5dlMYDvLF5HLelKmD3OfuPggy+NaMdVcCiEPCl9UFURW0jY1t3j6DME+eKisvbO7pHRsZEwAL8EzZ7anBwqLCwLCU1y8nZV0/fSoGqJVlc1hglSDiBQYSnWHxeH/zmXLrcswy5v0TqXMD5AJ7+lbnurwxOEn2xr+Z77bVTO0JCY5bUqDg4+ly5eqO399HEBHtmZm52dg68vsV5ymlgno739PSeP59ta+eBwaosKavgL68ZSnAorCntaLTpwdvu/2gJe2Mk8WVhaloi74wkvlwTtMtJ47AwlEBhFEUlbWsbt5SUrIKC0q4u1jwiovQsS4Vmenp2fJzd0dFdUlJx/ny2k7OPpDw/rHZKAOUHDY+wVfv5pM3H9cE7p1I3iDY4FYGYvzLkZtLWd0Zuv+6677jKUYGzZQyWRqcbeHoGXbx0rauLOTY2vtSalsj7U1MzT56MXM+54+Lqp61znEhSA28qBD5d7ZTAYEQsEhdm9HWl/+4nCZun0zb8lbHkyYsIfACfzKavf5Kw+YLDfh0FjkJF4GRHQ9M0PCKhpubB2NjTqamZZe1iQHianZ0f4T4d7+zsOXX6koWluMaEq5oSDAKnr3gsyfyLcv+3hhI2izZEfZYhN5W2YSJl09Pkl4DfePKmqdQNAmObStvQE73trP2/bNWOYJE4GP/5MAyuQCSpWVm7paWdrqquHxoaAalCfo+mp2dHR58OPhnufzTAZPX3MHuB3+PHg2y2iLMhNnuqtbUDGKlQFDQEthn8XlillEChRBQCr0c9Fn/8S1bM1snUjUK2B3Pp6ydTN44lvTQYv4UVs7Uraltr+Ov1wTsrA3bf93sb+FX4v1Ub9GZL2BudkdtZMVsfxb3yJGHzePKmmbT1QCp/ZcjNpq/vid6W47rPSPl3LBLHT3zAXJeqqG1p5Xrx4rXWtg5+ECy6PzMzy2ZPDg+PPno0wGT2dXb2NDe33b9fnV9Qejs3/9r13Ow/bwG/O3cLa2sbmpsfdnR09/T0Pn48ODr6lM2eEn4W3dnZk51909rajUgUsetZpZTgUFgtCuSS4/6eqG3TaUsYiIwkvtwW/nq+97snbD7x0/veWvWIgdIfmhSIBhmq/t+fBhmqSYHoK/5hQf/VW/eHWLMvz9p/dN/v7d6YVwFFy0wap6M5a/8vI+Xf8SgsyBIPFEZBY2jePmHFxeUsVr/wWrLR0aftHd337hWdOHEuKDja3sHL0MhWU9NUTd2YoWpIZxhwf6pqRppapgaG1lbWbr5+YafPXCq7X9XdzRJ+0MNmTz56NJiTc9fdPVA01f6qowQCJaER+OMqR8/Y/as94rXZ9P/8fYO3JQPxWxpCd+R57T1l+3GY0dduWj+Z0H6jERA4FBbOR9EOg3FUL0p4pLaCvDkHl0MJ5geuOH1Y4runxHcPt6MBQQQGV1BU0vH0Crl1K29wcGhqanpRg/H85dgYZ7IKzEEiIhNdXf1NTDladiKJs+0NxPULHEHF4ek0Fb3j5o7ePqHR0Slnzly+l1fU1tYxPDz6fEKL7kxOTt2+nf+CUAKBkpBwvDoZlmzxxUTKxjlBiMyly7FTNw4nvlzk806i+QErxi9UHBKkdwB/xNHn4pGuWj/56B1SJcHAOxoIlEwiq9vZed6/Xz04OLyoVhZdzszMTk5OjYyMNTc/vJ6T6+EZxFA1AM+MwKeAk9YzZy/X1jWOjo5NTk7NzPDWx0xOTj1+PJiRccbY2BYERJAUV1dbgkZwEDlp80lz6I65dDnw6Qyg77rr8Z6P3iEzlaMMIpyIxiDheJDSgj+CztsbULAoRRwSjcCDDFeBjsbXLyI/v+Tx4yeTkwJakaGhkQcPmjMyz7q5B2jrmCtQtVBoZfDMCHyKRCkSSWoamiaurv6nTl2sr28aGRnjOatqampLTz9tYmov8rrg6qJEd3642hS6g53Cd7j6V+a62XS5wfgt9cE7z9t/5K79IxmDXqruXGAdgLwAgyso0/RcXANu384fGHgyPT2zqOVYeDk+zu7qYt6+nR8VlWRkbEsiq4PELNojMkXDzMwhJib15q281tb2hR0Qmz3Z0tKelXXByNhWHPe7q4gSCJQYavTNQNwr02kbQEYhzzLkniZvKvN7O8ToGxUCXDTJivMVBqti7+BdW9sgcMY7OzvHYvVfvpxjYeEsTorCfItCKxsY2mRmnm1qagNalNnZucePB1NTTxka2QgTA8g7q4USHAprzThy3XUfuGp1MnVjT/S203b/ctH8iUGEoRFgc1SQYov2CAZXwGBV/Pwj79wtHBwcmpycWthsPB+uqKhNSjphYmpPpoiuqxAyq1AY5f+M3bV1zOPj0ysqasbHJxoaWjIzz5qY2BHFduK9KiiBwwhqJNhp24/bwl/n14o8y5CbTtvQEv7GRcf9x1V+JS5x4U1IWYO/xmnbjzvdupU3MPCE5wiAC8rTp+NdXcykpBN6epYrfDyhvoFVZGRiXl5xamqWsYkdDkcHL5QwT1cFJXgU1kb1l4cRr4HoQ2fS1w/Gbzlh84kqidOECFSWC1P4pb5jbGJ3+cqNri4mOCJzc886Orqzsi4YGtlIdgVfmAzD4BzPvuoaxoD9gGiTmkUJrQpK7NSOXHP5YJj/Mi+gCc2w/tScfhSNwIHoMLjFQ8LxFCzaQOkPB/XDPrqHIk2+SrL4It3qs2SLz+OPH4g2PRig/52D+mEdqjwZg+Z+BR5QUtZxcvbNzy8dGhoBB2V4eLShoSUiMlFdw2TlnRICUzAJtmFSpgQOIxDRmDTLzx7FvsJVkD/f6QzEb7nj+Z6+4jEMqLJcHkJCwjkRqpJgZrSjHjo/pll+dt11X6nvnpawN3pjXh2M39If+2p31La28Ncr/N/Kcd2XcPyAq9ZPOlR5JTwCXEEiDyHN/5kyoqKSy8trRkefgs9u5uaeFRSWBQVzzpFCodf2gZZSpoSMQdur/5zntXc2fT2IGWKB97s+uodIGLTAVkQZj3BQP3zBYX9N4K5Hca8MJWweS3ppImXjVNqG2fT1c+nrZ9PXz6Stn07bwE7ZOJb80pOEzZ2R28v934o1O2ik9Dt4RwaBkqEwipKSjo9veGNj68I5J3dEsjAwNjZeVV3v5x+x1t0ySJkSVRIs3eqzlrA3nm8/gDvjKZvaI1+LNftSlQQDUYrAYQQlPNJZ89+plp/lee3tjNz+NPklfnEuuj+Ttn406eW64DeznT+MNj1ooPgHBnTcwzkXUd04JDSuqKh8aGgEfNXtyZPhktKK0LA4NXXjtXtErjQpgcGIJsq/lfrueRK/eVHNAZfPMuSY0VsvOe03pf3Gb8QAgZJgMKIyHuGq9VO+17v9sa/wjEqYm1OpGwbjt6RYfKFHPUZAY0B2WgBT4vCIxJqaByMjY+CgzM09Ky4uDwiMpKnordGd99KkhIJFeese6o15dYbPes3T5JeKfd+xUf0FxIodCccrYFGJ5gdqg3YNzZspCQMEz3eezVumdUVtu+X+Dw+dH+lEvio7oOuhMwy8fcJqah4IVK8NDY9UV9cHBkWra5jww30135cmJaa0307Zfvw0eRPPOvsrQ64hZGeyxReKOCSSl/E6BEJCIfC6VPkok6+qA3dPpGySiKX0bPr6/rhX8rz2Buh/p0KAg3VzCCqdYRAekVhUVD48PAo+mB0ZGSssuh8aFsdQNURjxF3EWWGkpElJsOG3Ff5vTaXy1sfPpctddNxvQf+V39I/FEpUxiPDjL7pW4qZEk8ied4s8H7XU+dHChYFMmSGwigYrEpIaFxjY+vo6FPw6fHc3LOy+1W+vuE0mp5odh4rDAc3OWlSkmr5OTN6G08Lkrl0ufHkTXHHv2QQ4fwqCQXHRxh/Xe7/Fmc/zjLstxiM31Lm97aP3iEGCcaV16IAsG9PTd3Yxze8vLxGYNczODhUVV0fHBKjobmWuh7pUAKHEfAo7FWnD8eTN/E0iH+avOlhxGvu2j9ybJIhPFwnYOf3buV6vCdwy8WzefPEoYTNfbGv9sW++nh+ejyRspEnnYsaldGkl+56vuev/70SHglikwBHUJWUdKKikktKKkZHOXbRC+fDi8Lj4+yCgtKQ0Diait5a6XqkQwkehdVRkC/0eWdRrXAvWTFbr8/bnC762+VeqpOhIUbftPJf9+FGNZu+fix5U2XA7htu799we/+e594K/9090dv4jYe4HwKBZxlyJb573LV/AhlBA9avODwjICCqra1DoK3hzMxsVVWdl3foWjniQTqUKOMR7to/1gTuWlQl3Mv64J2BBt+BzDLs1X8u8d3zJIH3FPrvzHVz6XJjSS9VBOw+Zfuxl+4hG9UjZrSjZrSjFvRfbVSPuGr+FGXy1RWnf3ZGbWcLMr0eiN9S6rfHT/97VUFdj7qGiZ9fRGlppcCuZ2BwqKqqLiQ0TkPTZPWPUaRDiQYZGn/8AIgyrdhnj74iR2nBbTy4ARiUSERjok0PDidu5qnUB7ZaMaO3Fni/E2Hylb7iH9xvFwYoWJQF/dez9h81huxgCxrZsFM33vV8z0//ewUsCqTrmd9yoR4VlVxWVjU2Ng4+65mZmS0oKA0OiaHRVnvXIx1KdKnHTtt93BG5ndt4LArkerxHwmB4zkIxSJwV45drLh9wNgnz8i3wn61Wjvt1qcdAzNigUCIagVPGI6JMvuqK2g5iHff3/IZhdurGUj9O16OEBzOthcEpClQtX7/wlpZ2gXvHx8fZVdX1vr7hDFXDhQSvtrB0KDFR/i3X472+2FcXwfF35rpnGXKjSS9dcNiPgBN4zm6IaEyE8VeVAbuf/xa4M5r08m2Pf7hr/wi+1UoeQoJASHAYQZd6LMrkq5rAXQKV+gPxW0p89/jrf88gwXjmDahdOIKqrm4SFBRTXCxYhT84OFR2vyo0LE5dw2TVamalQ4kV45faoDd5mgrMpq/vjtqWYvk5v78nKg55wWF/d9Q2npTMpq/viNweoP8dg7/mdFHMcBiBgkGnWHz+IETwJuRnGXJ3PTn22BRQRxWACj8yKqmysm5kZAy865mbe1ZYdD8wiLN6vDrXeqRDib3az12R2ydSeGhdZ9LWN4buiDY9uKguuZc0ArzIZw+/GcpA3Ja7nnt1qcdARg/cqIAA0KKoEmHhxl93Rm4f56ML5kI5mvRSmd/bnjo/gljdAip8moq+j09YXV2TwNXjkZGx6ur6gMDI1XmOqnQocdH8aTjxZZ7LN1OpG8r93woy/HZRXQKXMChRgwytDXqTn7ajKXRHmuVnikvflYOAEXQU5OPMvqwK3P2UjxaHC8pg/JYC73cD9DmzMJBFQTiCqqpqFBaWIIwKf2h4pLi4PDQsTlXNaLXZo0iHEg/tH/hV82TqxjyvvZ46P/CkBAXH6yv+0czf0qDQ+x1PnR9Es4qFwwg4JC7J/IuWMI5/JZ7qPi4of2euy/fa66X7gwIWxW8NATBcwmBVwsIS6uo4+2UErh6XlFb4+UfQVPRW3sKNp8CBm6uOEnbKxlvu/3DV+olnprFInCntt9YwvkbUOa77zOm/YpGiuOUEjBA0KZBw469bwt7g16lxQXmSsLnM721v3UMgYyBAha+qauTjE1ZZWSdQj/LkyXBVdX1Q8OpaPV6NlNxwe99Z8988KcGhsOb0oyAq16vOHxoq/SHODgwEjKBJgSSZf1EVuJvfAgIAylyGXEfk9mDDb9XIUJ655d5EopT09Kzu3it69GhwkcL++cvBwaG09NNGYm+i4aYufuDFpAQj3j4dGIyIQ+LizL7sjNzOb8n678x17NSN/zdCslf7mSLIiSOwpepeXrFASiS41Up8OLgxSIcSN62fOC43eTlWBLSc7to/crO4MCCwLbnruddJ4994FA+l7cJ4wMMQKEePoqMgH2789YOQnc/rUTiec1I33PXc66N7SBmPAJlPAZ48nV38rl3LZTL72OzJ5xuPhXckuNUKvIxLeiodSpw1/z0Yz3F/xe3juYHJ1I2FPu/46B3iWQw0Am+o9Htj6A5+Q8vqwF1RpgfBV+Z4xvz8TQSMoEqEpVh8XhO4i53y/40TnmXIDSZsLvd/y1//OyoOCePj+QJYAiRTNCwsXa5cudHfPwDuugJwnHcy64Kktlo9XyKR70iHEkf1w/w8HE2lbrjv/3agwXc8iwSBkBhEWGXA7ilehP2duY4ZvTXb+UO6hPYPAwq3/6jw/7soCMzVbVSPUHFIEA0sZ9sHSsnsuFNBQWlf32OBsxsWqy8l5aTR/EYviWy14ilA0W5KhxI7tZ87Il7jqb+aSVvfEvZGnNmX/MqjhEded933KI63FfREyqa6oDdtOb5Zhd2LxS+hhSr8SJOvaoN2jSS+PN8h7gVaEfCOBolScnbxu3r15ryPJMEdzcmT541N7Ehi+1MEKY7Ij6RDybyGfhdPDf1chtxA/JZTth/DoESe9kdkDDrR/IsHwTu5ndSiwED8lgyrT01pvyGEcCEPOLNHIcBOPuFs48AhUyw/L/J5pzboTR/dQ+CtCBRGIZM1jIztsrNv9fcPgKvnx8fZLFbfyZPnTUzt0GI7NRGZA/APpUOJsfLvt9zf7+W12jfvnmR9jus+LBIHh/E4swaLxNmr/XzT7f1FcHAvZ9LW98W+mm71GRV0qYXTVHCWhfFUHEqNDAXZNQiBkBAwggoBYaT8u73az8p4BMhYBAIlo9DK1jbu+QWlTGbfvD9PsPMIOjq6U1JOGptwEFltHQ0XHelQoq0gf8Lmk/aI17hVuyhQ4P2uOhnKc0smAs5xUJBp/el02nqeY9i/MjjnDtQHv5lm9ZmjxmF+pkx4FFZLQT7I4NsMq0+zbD82ox3F8z8iB1jrwSKxFFD7EiiMgsXRnZx9L1/OefRoYGICrKOZnZ1raGg5mXXByMhmdXY0UqaEToQHGHxbz7/XqAzY7ah+mKeTNKABCDb8ti/2lUk+9vfAARVPEjbfcHvfT+97OgGuhEdQsSjK/IlbClgUjQA3VzkaZfLVg5Cdw4kvDyVsTrH83EDxD3EO3YJAyUSSmr6BdU7O3f7+AXB7ejZ78vHjwczMs8Ymdivvl4Bb/UIGpNOW4FFYXeqxIv52rx2Rr2XZfqJDledZDCiUaKZy9ILj/t4YHhYqQLPEsVib9/zcHvFahf9bt9zeP2f/Uaol57it07YfF/vsaQzZwYzeOp6yCdg53BW17Zz9RxpkiKjafU5H4+DgnXunsKenV6ADnJaW9tTUUybz/kVWbUfDFb50KEHACAQ05rrLB1OpvD2GDyVsrgrcbaN6hOfQRB5CUsQh7dUPl/juGUsSsB8Y0IANxG/pjNzeGMo5bqt9fnq1SKc3k76+Nfz1DOtPAX/z4NvKueIDAlAYhUhSc3DwvsTpaDiunhcqyhaFJyenmpraAO8m4nspWpSTZbqUDiVAYbJsPhmI38JzK83s/IFG/vrf4fnstJCHcNzCpll+1hr2Oj/TxkVjHYGXs+nrx5M3pVl9pqUgj4Tjec6wnq8GCJSMxdH1Daxz7xQKVMBPT888fjyYnn7ayNj2+ahW7R1pUhKg/12Z39s8F0r+mvePddFxvyXjF37r8jAoUZd6LMXi88H4LTzVuAKxWPTCvGNxubbw187Zf6RLPSbwBAvuUVpOzr45OXd7enrBW5G5uWeNja0ZGWdMTO3F8Zi48jBJkxJLxi8XHPbz1K0BBsn1wTvjjh/A8ffxjYQTzFSO/unyQUfka5zjLngZSy9CQeDlVOqGqoBdVoxfBPpIAvQi1jbuly/n9PcPgI9FJiYm29o6srIuGBvbiux3deX5AFKUJiUaZGis2Zej/AcW7NSN9zz3KuGRIPZgGCSOToRfdf5wKGEzz4mxQCwWvSA8JUiUkpGxXX5B6aNHAmY0c3PP+vsfp6RkGRrarP6x6vMsSpMSHAprr/5zffBOfiPQuXS51vDXY0wPalEgz2cduMNxJ4/AmdN/TTQ/UO7/1kD8lkW1LvzlRMrGnqhtl53+6aH947yjA75uqKEwCoup+5oAABKxSURBVKCAz86+xWT2getF5uaeNTS0nDhxjuNUc1Uq4PnJlntfmpTIQ0gaZMg5+486+KvXhhNfrgzY7aN7iIjGgLj8RsIJ6mRouPHXN93fbwt/fUmOTGbT10+kbOqLfRU4y9Ga8QsBLeAcC8Cl59WrN+dXegXsCu7qYnIU8CZ2GCyNK/e1FZAyJSQM2kb1SL7Xu/z+4oEzkLKdP7Ri/AKuROdYraKw2gryPrqHCr3feSS0U6SxpJdaw18/Z/8vF81/kzFolKDT7FFoZQtLl4KCUharf3p6ZnYWTAHf1cXkKOCNbZEosCMrVjk0UqYECcdTccgT1p8MxG3hZy/9d+a6tvDXz9r/S0dBHgQUQNAYBGeY4qh+ONLkq9N2H99w21fsu6cumHPacG/Mq8CvJ3pba9jr1YG7Crzfve66L93qMx/dQ6a035TwSPDZL9ek6MqVG/NnRoPpRYCOhrPSa2y7yhXwAhmVMiVA/jx1fijx5bvF5u/MddNpHJVXiOE3mhQI57BwXr4qFhUVg8TRCAgL+q++eofizQ+cd/jouss+4HfV6cOTNp9EmRz00P7huMpRZTxi0bf8LnF4hpb2cWClF9xeZGpqemRk7NSpiyYmdkiUIr8Il+k+BEpGICV5VPmqoESFAPfX/54Vs5Vfv/PX/AkFjSE7Ik2+pmDQ/DQoC4XOMQmAE7BILAmDpuKQNAKCToQDP5X5ZR0FLIqIxmCROJAJ1MII5SEkPX2rEyfPt7S0g1udzc09e/RooLCwzNHRG4OlrfykBolSojMMJDhSXhWUoOB4Xeqx6677QECZy+B4Ryrx3RNu/LUWBSKw61lUwRK5pDMMff0iysqqBDrHGh4ebWpqDY9IUFUzgiMUJJK6kJGo0A0cHL0zMs74+IZJagPYqqBEHkIioDGuWj/d9Zx3D8zf/dVEyqaWsDdCjL7RVpDHIMDO5RRSpkt6DY6g4gmqqamnmpsfzp/LyftsK+7CTX5+ib9/BJWqJUFn3/wyDIGSgVPbPDyDb97KGxkdk+AGsNVCCcfCFIuKNj3YGQnmJALwt9YR+do1lw+8dH5QWvpOT35SFuY+UBNa2scjo5La2jpGR59ygeAZGBgYKi+viY1N09WzECZ+cd5BIBU1tcwio5IKCssePRqcnp6R4Aaw1UIJICAz2tFz9h91RW0XuC7TF/PqPc+90aYHzWhHOR4oeFm1iSN0kG8RSEUdHYuUlKzq6vqxsXHwYezw8GhVVX16+hl7By8tbQkcE/58xtAYmjJNz9bWIyn5ZEVl7ePH/39j2NjYeEFhWUhonApdXxwfbquLEiwSq6d47K7n3qFEvq6wuCPcvzLkhhM333Dbp0GGAue5QqA8/PQ9L1aQO5B5M0coH5Nb7ocwuAIWR09KOtHe3s1mCzhLaW7u2cjI2IMHzfEJGfNnoVCgMLL4Q1oIlBMJFEZRoeu7uQXm55cODg7zNH0qr6jx9glVpumKnOjqogQ44sJe/edLjv/kOCX47zHQXDIWBWbSNvTFvlrqu+eE9SdeOj/oUY+Jto8cqH404j+TZxvVI6okGI7/ZmOg69HVs4yMTGpsbBXo82hqanp4eLS1tf3W7by4+HQbWw+aij6XuaUGIFAyEqWkpKxrauYQFh5/+UpObW0DyHIjx31oVX1ISKyGpolooKwuSjhr8VAiHoV11Dic6/EeM3qrQFAAbroit9/z3Avox8zpv+or/qFKglGwKDwKg+JzKigMRkAj8AQURhGHVCdDDRQ5J+lEmnx1wWH/Zad/RpkeNFb+DQN6Fg/H55GGaVra6YqK2idPhsEdeAIDlydPhhsaW65cyQkLj7e0cjE0slHXMFGgauHwdGHOE6YqaqupGxsa2Tg4eoeGxp0+famisra/f4DnqGjhTTZ7KvvPW/YOXlAYealQykNIq46SedN2zpRHR0H+pvv7w4kvC+M3fG7ehfxk6sbHca80hOy84fZ+rNmXtmo/Gyr9rsjHDRoOhaUT4YZKv3to/5hs8flNt/ebQncAZ6SwUzYOJmxOt/pUlQQD2XQjDyEhkIpkimZwSGxlZa3AFmVu7tns7Nz09AybPTkwMNTa2nHnTmFK6iknZ19dPQuKggaIAez8mXzH3dz9E5Myb9y8197eNTQ0MjExOTU1DT4wAliZmpq+f78qODhGNH+Qq5ES+Xl3ZzgU1knj35ed/rkkI6OZtA1jSS+xYrY2hOws8d2T57X3htv7Fx33Z9l8km71GfA7YfPJBYf92c4f3HJ/P89rb4X/W82hb/TGbOUuTQM2s40hO07afKyv+AeIORLQ9ahrmHh5hdy8da+ri7nwLxgkPDU1MzY2zmL1NzW1lZRW3LlTkJ1988yZy5mZ51JSsqJjUqJjUuITMpJTsjIyzmadunj5Sk5ubn5ZWWVDY0sPs/fp04np6VmQ+Bc+6u8fKC2tCAmJ1dI2e0F6nIXt4fx5fkfuer7XHvGaQP9Ei4Ysiy6fcg5M2gL8RpNe5mlGueiTmTSOh7e44wcMlX4H39YlDyHh8HQPj6Br12739T0SaEiwsAq54ZmZ2YkJ9vDwaF//47aHnW1tHV3drL6+x0+ejMwzAbbyzI1kYWB2dg44lbygoDR0fpqzULZLCq/StgQoAzBG0aRAEswPVAfumvzvTt1F1SnM5bMMubn5s7Y4//PX2i2M6q/MdVOpG1gxr3KPlASRLBRGweHpllaup05dFL5FWVipQH80MzM7NTXDZk+x2VOTk9NTUzPT07MzM3M8Jy+LPl90OTk53df/ODv7ppt7AJGkJo5zpVVNCTCYRcIJeorHggy/BWxHJlI2CVnNC6tctDCwAawhZEem9adGyr+DdD0AQBQFTTMzh9i4tPyC0uHhUYHLPYvqVVKXk5NT/Y8GioruJyWftLPzFN+P+WqnhPvnS0BjbNWOnLb7uCl0x5KMjETjY+FXk6kbuqK2+et/J8zqMbB3y9XVv7y8pquLOTw8Ojk5LUJLIAIxwNB4ZGSss7PnXl6xn38ERUFTnCaEK/w1QwkMRuRMfKjynjo/XHP9AMTv9MIKlkj4ScLmCv+3PHV+EIYSztAboUAiq+voWgQGRv35562ent7x8QkRan2pn0xOTg0MDN26lRcUFG1gaA0gItpwlcsHEFgzlADZRcHxSnikg8bhRPMvbrv/oyFkZ3/cK8D+PIkAAUQCzHGGE1/ujNxe5vf2BYf9IYbfcA7zW6KLJTrdwN7eMyEx83pObm1tQ1//4/Fx9lLrXuD7ExPs/v6BBw3Nd+4UZmScdXb2YzAMJbu+uMYo4TKOQeJUSbAYs4P3vPY+jOAYuv7nLNgMOWH0KzyRmh/hys2krZ9I2TgQv6U26M2LDvudNf8N4v2Xmx/wgK6eRXhEQn5BSWdXz9OnE2w2R88xPT0rck80P8idZrOnxscnurtZhUVl8QkZx80dl8lKYa1SApjOM0gwI6XfLRm/RBh/fclxf5nf2x2R20eTXlq0u5MnE4tuTqetH4zf3BiyI8/r3az5w1IsGb/oKMhTsSg0gq8xPTgc3Kc4PJ3OMDAytnVy9gkNi7tw8c+S0oq2h50CV5V5NiRs9lR3N6uisvba9duxsamubv7GJnZq6kZEkppE+hdutrmBtUoJtwBAQIUAt2L8EmT4bZrVZ1ecP7zrubfU7+2awF3NoW88jHitM3I7K3orcNZWXyzH+pUZvbUjcntr+OtNoTtqgnYV+7xz2/0f5+0/ijM74K1zyIT2Gx6FBXFSsih14S9RaCVFJW1LK9fAoKiU1Kw/r90uLCyrqKiprW1obGxta+vo6Oju6mIymX0sVj+T1dfdzero7Hn4sLOpqa22ruH+/erCovs3b+WdOHEuLCze0clbVc0Ig1URPgOivfmCUMJdy4XNGzLi0RhNCsRO7ecQw28Szb/IsP70itM/gbO2bri9f91130XH/RnWn0abHgwx/NZO7QidCMcisTAYEQYlchaEoTy864gm3+e/4q7lAgvLdIaBhaWzu0dAaFhccsrJk1kXzl/4889rt6/n3Lmec+fipeunTl9KSz8dEZno7hFobGJHZxjiCaoIpCIURoHCKMvUeCzK9gtCycJSQSAkGIxj8UrFIdVIMG0FeV3qMWPl34GztsxoR01pvxkp/65LPaZBgaiRYFQcCr3iZm9AhmFwBTSGRlHQUKbpqakba+uY6xtYGRrZmpjam5o5mJo5GBnb6htY6+pZqGuY0FT0SGQ1NIYGgyusDBxcqb6AlHDLJgtISgIySsQ1XJJUTazmeGSUyCgRLAEZJYJltJr/ylcmbzJKZJQIloC4lEh2p+HK/GXIUlmqBMSlhEBgrLbjw5YqAtn7IBIAzPTFpYRK1cLill33B1IM2aNllQAcoYAnqIpLiZaWmYKC5rJmVBa5FCUAbEwXlxIbW3dVNSMpFkOW9LJKAIOl6elbikuJh0egjq75smZUFrkUJUAgqtrauYtLSUREvKmpvRSLIUt6WSWgQNX09QsVl5KsrPN29h7LmlFZ5FKUgDJNNy4+VVxKiopK/f0jpFgMWdLLKgFVNaMLF66KS0l7e0d8fBoGy1nOXtbsyiJfeQnAEVR9A6u8/CJxKWGxWGfOXtLUMl27zkxXXvprJUUyRd3Ryau6ulZcSnp7e69du+ng6EWmaKyVwsvyKaQEDAyt4hPSmptbJEBJYWFJZFQina6/wgZUQhZV9prIEnD3CLhx8057e4cEKGlubrlzJ9+Y49hUSeQMyT5chRIIDYutqqrp7u6WACU9PT11dQ/8AyLodNH9+6xCGf0vZwmNUaYzDE6cPPfwYTuTyZQAJb29ve3tHefOXbazc5d1Oi8GW4pK2u4eAbdz7wnkA3hhnTDvdXf3VFZWx8SmoNDKsinxCwCKnr7llSvX6+oeCFP7vb29QlHCYrE6OzsvXf5TR9d8zR0k9QJUqgSLAIGSFahanp5BtbX1nZ2dkqQEiKu4uDQsLE5V1VCCmZZFtcISgEDJNrbuZ89d7uzsEhIRYdsSILqWltbCwhInJ28CUVU0X4ArLBFZcoskgEQpkSkaySknqqtrhRm0cjESqsfhvs1kMtPTT5ma2SNRijJQFtXBKr+EwijKNF17B8+7dwu4FSpkYGmUsFismpq6tPRTkvLCs8ol+8JkDwKdP1vd0au4uKy1tU1IOLivLY2S3t7ezs7Ou3cLvLyDVWTqEyFOe1olnCFRSpZWzidPnn34sL27u4db/UIGlkxJb29vQ2PTteu3HBy98ASGaG5oV4ns/keygUJzdGhpaVnl5ZVCYrHoNVEo6e7uaW1rO33moo2tm8zCfvWjpqllGhwcXVRc2tEh7NRXApQAUVRUVGWdOm9p5aJAlRnZC94/JxWYUGhlDiIh0bl38lpaWhfVvfCXorQl3NgbGhpPZp2zsnbF4elwxEp73ZCK3NdKosAJkCp0fQARbpWJFhCLkq6urrq6+itXrwcERqrQ9RHIlT4Nc63U2QrnEzjy1tTMIT4+rbCwRJxWBKBKLEqAKBoaGm/dvhsSGmNgaI1CK8kWelaYiUXJodBKdIa+o5N3evqpoiLRxyILWx0JUNLb29vTw2xoaExNy1Km6WKwNJnCbVHNrcwl4NJNSVnH3SOguLj04cP2hTUtTlgylDCZrM7OrsrKaqD30dWzkIGyMmQAqQCjEGWaro2te2paVn5+UWtrmwh6EX4kSYYSbuzd3T25uXkxscmmZvaqakbzKz6UlZTX/1RaECgZBlfAExgMVUOz4w7+AeFnz10WxtqZW19CBiRMSW9vb3d3T0tLa1lZRVx8mompFA54/98BBQIlozHK+gZWEZEJd+/mNzU1d3ZyvMkKWffCvyZ5SgBQ2ts7SkruX7r8Z3x8mp9fmLWNmwpdX6aCkwjBSJSikrKOrp6FrZ17VHTixYtXi4pKm5tbenqWrHoXEpRloYSbdldXV1NTS2FRyblzl/38wswtnDQ0TegMfUUlbRJZHU9goDHKgAdciYjvRYoECuP0JnAEFYVWwhMYRJKaAlVTmaarrmFsbGLr7h4QHZ107vyV2tq6rq4lWIpwq2ZJgeWlhMVi9fT0dHZ2tra1PXjQWFpafvPmnYzMM6Fhsa5ufmbH7TW1TKmKWuKcmPwikbGwLHAEFYtTIVM01NSNTM3sHRw9ff1C4+JTs7NzysrK6+oeNDU1zw9Ru1ks1pKqXISXl5eSRRlqa3tYWVmdnX0jKTnTzz/MxtZNV89cmaYr64kW8gGEEUhFApFBVdTS0jazsXX38AyMiIzPOnW+mLMc07ECZCysuxWlZGHCsvAakoCMkjVUWVLLqowSqYl+DSUso2QNVZbUsiqjRGqiX0MJyyhZQ5UltazKKJGa6NdQwjJK1lBlSS2rMkqkJvo1lLCMkjVUWVLL6v8DmEMYKzPUtMoAAAAASUVORK5CYII=;" vertex="1" parent="1">
          <mxGeometry x="919.83" y="200" width="60.33" height="60" as="geometry" />
        </mxCell>
        <mxCell id="sLUFw-evy7mvADKt9X_3-7" value="" style="shape=image;verticalLabelPosition=bottom;labelBackgroundColor=default;verticalAlign=top;aspect=fixed;imageAspect=0;image=data:image/png,iVBORw0KGgoAAAANSUhEUgAAAJEAAAGICAIAAADOFJWTAAAgAElEQVR4Aey9CVQcx534LzvHOnn2S9bJOo5f4v3/4iRrO34bb7LO5XjjOHFsr2NHtmXJMgIhCQES9yGEJIQEEuhCJ+hGQohL3Pd9ChhuhmPu+z6Z+57p6f7+t7thQIAkbCMF2epXD2pqqqt76tPfb33rW9VVq9xut8PhsNlsZrPZZDKp1WqJhCMX02X8IQmrQ0JrEI6Xc0eKuSPFnOEb7KEi1mAhc6DgYfjsNZDHHCBDLnMgl9F/jd6XQ6NcpfXnMgYK2MPFvPEaEb1JyuxQcvoUgnGljK9Sa6f0OqPZZLWa7Xar02l3u50I4l5FAjOZTFNTU0qlUiQSCTijMk6XilWvpuWLKEclXbvEnYnizkR+azy7MZrbHMtriXsYPk8NtMbyWmPZrVHs1ihmcxi9OZzeHM5oiWC17eB2Jom606X9p1TDl7Vj1xX0Bjl/TCKVK1RKrU5jNOotFpPNZiGxrbLZbCQwhUIhFArZbDZnsos3XCzpPyfr3itt2aJuXE0GRd17spp35bV/V9S99zB89hp4V1H/jqL+HVn932T1b8rq35Q0vClufFPS+Jak6X1p01pFc6CyLVTVHqdpTxL2nONRW9kcgUgslSmkGo1Kr58ymQxWq9nhsK0ym806nU6hUEiFNCnrpnCsitOXTW8/xmjaz2jcxW9PIoXs4d9lqIGuneKuncKbO0TdCaLueFHvTjIIe3cLe/YLuw8IO/eJmhP5tTH0uj3srjOC0VIpu1MiHJPJJGq1cmoKFzir1bzKYDBoNBqpVCrn9CgnCqVdKYzaeFp1LK95l2IoE9O0gWXsYViOGhgFCxmGwTITrCNgGwEblSh/ErQd5snLspbEydJQRsU2eXuiaixHTG8TCvkKhUyplOt0WpvNsooExufzpbQ6dd8hbeMGcY2/gZKA0E9iygZwS+Dhscw1gALcJnikoG0H9gUrZaes4sOpqrflHTul42UcDkcoFMpkMp1OZ7PZVskVYj6PyWRSRaPFova96vpPVR1RIL4G1h7ABAD6Zb7hh8XdDhiersfr3DkEqhvazhhJ5WpGVbhoKIdD6+GxRmRSgU6ns1qtq+QyIY8zyhi7yaZcZtXFWjqDvKzTYOkGREYAczys5OWugdsIGc7Mhte5Vw7OYVDfsPbFjVeGM9qPc4bKRaxupZQ1zUwkYvGZA+P99WMtxxlV4ehQFOgrwMNb7ht9WJ6vBu7AbOYrrxTc/R76cVpd/FjdPk73BclkvYQ3LJfL9Xr9KgGHKmB0TXTnDVTvo1WFA2M/eHsAe9iM+ap42SMzYO6gJDE1YDRUeJXbtn+kcier7ZBkrJRL6xIIBCqVapWIMyilN7K6z49U7+Y27gDuMUAHAJMt+50+LHCmBpbADHSAcTFZhaQ3g1oVL+hIVk0WCWnt08wk7D4lvUrYlTFek8Bv3gW8c4COAqacucDD/8teA0thZgRMhCrb5INZ49Ux0rYd6okcEa11lpmCVinoPPaQ2bLDuU2BS2UG6g7VyPmJmlhJa7yCmi2cbOHz+bhuFLMoD5ndpnLvUfLnZCaYaObz+UqlcpbZWPWOh7rxHlG6tdjlYCafrOB3HH0QmPl+rYfoypgB0wFuYskBFQPCBTcDXHRwTc4EOp6CcPFvMSWeE7REp9MK4ABAABAM0DkBMLhLuLX2P98n36+4QwRvz3y6UdwSJx+9LJho5vF4uJwJWb0PIDMbTguVAcYFdAI3dF2doC8H+RUQniVC5nREfgVPd98EdATPiTEB4xMWlhHAA+DBbsF2F2DY52M0/6w7oPJ9ZcS7WzPtmag5Vjp8kT/exOPxFArFg8cMQxFwazADHVV0uoXFbuY5z/hB9/AOR+8WZ8fHttbV9tb3nK3v2Vvfs7WudnZ87Ojd6hpOdI0fdTHOOjg5blEFoqF4bQIMsQG4/hnM5jNc7PPdmMkmyle2bnRMe3Q8HLANg6Ed5FUW2iV13xFBSyKjMnTsht9I3kfjhR/SC1fTb3zALPmIDPQbH9ALV48XrhnOXz96Y/Nk+TZ6dYSwfbdmMMPDuw7qWrD04coTlQDoAGx3VYzLJGeLMZqftjgzLpeLy5mA2SObKOe1H6FWxa9UG4T0nPaDttQ7kWppDRCVfcApXsMoXDNRuI5eEjBRunmyPFjQGi/r3qsaOKSnnjCMZ+mpJ1QDh2TdewVtO1l10ZOVEROlQSMFn0wWrGHdWC0oeV9X/4F9YAcor4OjB1eYoFvhzHhjjVwuVy6XPwjM3BJUUe+ePG7vDrZV/9Ge90N1zr/ry37nbFuLDUdhE8ke+nEX85xbWIjIar2qFnSqx6sbwv+qWhBZrVtc4ubluJjnPbTDXmqioyvQUPUnzbX/z3rtSXPZr+2d/i7qQbeoDFzCh8zmS/uSPyOEdeACdAoQPlgHQVGupaTwKvzHc9/hFb4tKfmbvGa9uW8nSLLB1QzeXsBGACPsC+ADiABkAErirwjwFDZgdDwDOgToTVAXOqn75PX+srK3+cXvTea9Sy/5RNKWALJisPaBmwmokjBKyaZuvlWy5F/xBTMuohtXspzN2PFuOuirPCM7+WXr2IXv0XP/Ri9aq+9L8fJzQdsEZgpu1qN8wIQzkNREs6QHMAKYib96wrLXAaiJIMOJImywDYGhA1Q1LuY5bm0wo2A1reA9XvnHNkoYSHPANUqUYyYslIfMlvTwuQDMqEWMioo9/eH2il9Jc17Ulv3J1b7eO3kYUzahNhl4TQBOojCU7GYt+Oszmud2v3xxBOeB2MA0gnAuOnpCtdVvS3NfsJb8h63L38m5iJjot7NKlvQLliHTgyFnMyrRKwfHKCrIV3YkMArf5+X/SVK1BteEsqvgHQJUBED2iD0zI/R413hBuCszD4AL74xjE6AptlMPyBr8+EV/puW/LWgMdjJPg60bvMKFSnIZcCypiAeD2YxKdIwC96y13Z9V8Hdq7vuq9hgQXQNjB7hYeBXjes9FNHjIF2GGTWM24zrTwwNbPxjqpvr2Dee+x8h/U1v9N8twEo4N7wPcoiSXVOHLkOnBYDajEgX51nZ/e+Fz0oJXDT3xHmEZ2Cdwe+SWY1aMbkNuNsMc15RPN+IRmPVaAQFG5lF16vr2SAt/Y8n9V23135zM0wuV5C13cQ8/PBDMMAt4lWZxt7AjjV7wkSz/D6rmIJiqAoRFuJqs2MxBVNQsks/NbA5LIHSgDrdlTM3KtlBZ0e9pBe+xGuJMvCpAhIAZfN2Ae4jplqLvyEzIWBl9alQPdrZ4ILvjSshQXoC5OxaUxeAcB1RHNGCuGWSkL+IzMJsjT7fI2a3MZjQzwgFTs3U0dawk6GZOoJySAZYh8KoeMrvliZr+4NWCi2an57AbU1V9p0FcCs5J8GpxBUZWmK/CffWH41sI73YpsxedW8ACd5QZMDmmpWjHc1j1iZ6xo2Cn4BOh7vfxQMgZ4JUF+gGHuBWMQ+Ci4W571DTLbF5Nkx8XMsO8qNfjRdyo1wOYdw7U2VqfV9LsF3iMmK2GycFBN7ArQdkA6D9lkueDwQy3QcCjBpcSEA0uYZgJMOdnZeZF3GaTwaCfMpsMXsT92Zl5iKE1M271OKTENGo9kXIr2Xv+6cFgNl0NKIp6PB6v1zvzeU67M09AcLXpJYXJYbdOToy1NDeWFBflXb+We+1q3vVrJcVF9XU1AwN9NpvlM1UygiAulwtF0c901rJmfhCYeb1eq9Wq1WqlUimHw8HfH5BKFQqFUW9wOZxeD4J50fl+pBlmVouJyaCdP5cVEx25wW990JZNwVu3BG3ZtDFgQ9j20MOH08fHqUaj0ev1YtiC9ouoaQzDvF6vxWJRqVQymYzP57NYLLFYrFarTSbT7AO0rFjuWNiDwMxqtfb29l66dGnXrl0RERFhYWHR0dEpKSk1VdVSscRpd9yB2c2ujr1Ju0OCg4K2bIqOisjKPH0l+9L5c1l7k3aHbQ/dtGljVFRETU2N1Wq9Xe2TT8zNmzePHTuWmJgYExMTHR0dGxt74sSJpqYmk8l0x/q9F1+ueGZyuby9vf3IkSNRUVGbN28ODg4OCQkJDg7evHnzrp2JVy5nT45PGPWGhXJmt1kmxqlns84EbdkUEx15NutMS3Pj+Ngok0GbnBjrvtl5LefKrl07AwI2pKamtra2ms3mhRWMIIhara6urk5LSwsljujo6Li4uC1btoSFhaWkpBQXF3M4nIUn3suUFcwMwzAURXt6elJSUjZu3Lht27b9+/efOnXq7NmzJ06ciI+PD9jgH7DBPzfnGofFnscM86JajerqlctxsdEhwUEXzp+dnBibY3TgRr+Azy0uLoqICAsKCkpNTZVIJAtFTafT9fT0hIeHBwYGRkdHHzly5MqVK3l5eYcOHYqJidm8efOWLVtKS0ttNtvCc+8ZthXMDEVRh8NRVFS0cePG2NjYiooKhUKhVqs1Go1cLqdSqVlnMjcHboqOjGpubFrITCGXHj6UFrY9dG/SbiaD5rBb5zFzOe0CAe/UqRPh4eExMTGjo6MLRe3mzZtJSUkBAQGHDh3q7OwUi8VTU1M6nU6pVDY3Nx88eHDz5s0ZGRlDQ0M2m+2eQZpX8ApmZrfbqVTqkSNHAgICsrOzGQyG795Jo6Chrn5HXLy/34a83OtmowlFvD5ymBeVSkR7didGRYZnnjml1ajmASM/mkyGhoa6ffv2hYeHd3Z2arVa3yVQFHW5XGVlZVu2bAkJCSksLNRoNB6Px5dBIpFUV1dv27YtISHhxo0bev19extvBTPT6XT5+fnR0dHBwcEUCsVgMPjqi4xQR0ZPZBxfu+bj0ydPiYUit9M1l5lYJIiLjd4RH5ufl6vXaRdl5nDYaLSJU6dObdu2rbGxUaFQ+C7h9XpNJtP169c3bNiQmJjY2dnp85CREZfLxWKxyNs7fvy4SqXynXuPIyuYmVarvXDhwjbioNFoDsf8VxR5HG7+9bxP1q47nH6IPklz2h0+Zl4PIuBzY2OidsTHFuRfvzOzEydOBAcHNzQ0zGWGIIjBYLh69eqGDRsOHz48MDAwjxmKomKxOCYmJiAgICUlZe65X11mer2+pKQkPj4+ODi4t7d3ofKZGBvPOpP5ydp1WWcyZRIpLmczHkjMi4qForiY2Iiw8PNnz2nVGh/OuRGz0dRY37B3T1JocEhvd49+Suf7FvOiTrsjL/f6+nWfJMTv6Ghrx3sUPscmirkcTjaTFRURuXVLUMbRY2qlynfu4pFlI7mC5cxqtfb396elpQUGBubn57NYLLfbTTogyD5Tc2PT7sRdGz71K8wvIDvXPmaAYnKpbHfiruCgrQdSUtlMlsNmn1eVbqdLJBCeOnFyW0hoVETkPEklM1eUlQds8N/oH1CQl2/Q6b0eBE9HMRTxKuWK1uaWbSGh8bFxhfkFc3nPu9D0x68CM4/HMzU1dfny5Y8//jg6Orq0tFQul7vdbgCwWCy9vb1kdcdERTc1NM4KAeHEQhGvQibPPH0mIiw8NDjk4vkLtInJeVUpEYmrKirDt4dt9A9I2r1HKpYs7Jv39VIOpKQGBmzcuyeptrrGZDAC7hRDXQ5nS1Pzjrj49es+OXn8xKK8511u2ZDBCpYz0rt48+bN1NTULVu27Ny58+LFixUVFbW1tSUlJWlpaZHhEZHhEcVFN/hc3rTWmvE6ej2IyWAcGRrOOpMZsjU4Lib2/NlzHW3tDBqdx+GyGMx+Sl9BXv7ePUmffrJ+756kxvoGs9E0v5YxUMoVbS2te3btjgyP2J24KzfnWkVZeWV5RWF+wf7kfYEBGxPid9TV1JoMxmkRnLmBhUV9JZiRP1KlUnV0dOzZsycwMHD9+vVbt24NDQ0NDg4OCAgI27b9+LEMiUjsdrpwQ39OY4MiXsTtwbxob3dP6v6U4KCtwUFbE+J3ZF+6XJhfkHPlatqBgxFh4Rv9A8K3h1WUlZuNpkUrHfOiUxptYX5B0u49mzYG+q3/dKN/wObATRs+9QsM2BgXE1tUUIj36MlL3wHY4r7Mz8dxBcsZ+YM8Ho/JZOLz+UVFRfHx8du3bw8NDY2Ojj516lRne4dKobSaLU67w+Nyz6rHOfBsFiuTzjh14mREWHjABv+tW4JCtgYHB23dtDEwOGhryr791JFRo94wjXxBpTvtDp12SilXDPYPXL+WmxC/I2RrcMjW4PjYuKvZV4YHhzQqtcNmx3nPmD+LSBhZ7OcDtMhZK5XZ1NTU5ORkc3NzbW1tR0eHWq3mcDjt7e319fW1tbVNTU1UKpXP5XFY7Iqy8pIbxe2tbRaTGfOi8wQOUMxutY0OjzTWN5TcKM7LvZ6bcy0v93rJjeKaqure7h6bxbpoLTvtDgaNXl9bV5hf0E/pYzNZbCarraW1trqmpqq6raWVSWco5Yp+Sl99bV1leUXPzW65VLZoUdOJi9T+50taecwQBNHr9RQK5fz58zExMVu3bt25c2dPTw/pNzKZTBaLxWQyaTSasVFq/vW8zYGbgoO2njpxUq1UEQPR+CPvcbntVpvH5Z7rHPF6ELPRZNDp52lCxO1x2Ow2i9XlcPoEzmQw1tfWJe3e4++3IePoMVKm9VM6s9FkNpr0Uzq1UjUxNn708JFtIaGbAzft25vcUFevVWsQt2dxcp8P0CJnrTxmer2+qKho9+7dgYGBwcHB/v7+69atCw4O3rdvX3Z2dmNjY0dHR0NDw7lz55J279m6JWjdx2uPHj4yNDBoNVswL0pqSKVcQZuYVCtVczvapI3u9SA+MGTlatWaibFxSk8vm8ny4XQ7XTKJ9PzZc2s+/Mjfb0NcTOypEydrq2t6u3t6u3tuFBYdO3I0KiJyw6d+fus/Ddjg7++3ISoi8lzW2dv1BRep/M+ZtMKY6fX6gYGBPXv2hISExMfHFxYW5uXlZWRkREZGhoSEhIWFJSUl7d+/PykpKTIyMioics+u3VcuZ/dT+nTaKY/LbdQbWAxmdWXVhXPnjx/LuHI5u762bmJs3KDTe1zueY+/x+XWT+mGB4eKi24cP5aRduDg6ZOnCvMLert7lHIF2aceG6Xm5lxLO3BwR1x8VETk3j1JB1MPHEhJTYjfEbZt+7aQ0AMpqdmXLhcVFKYdOBgVERkbHdNY37C4kvychBaetsKY0en0S5cubdy4MS4urqioSK/XG43GycnJ3Nzc/fv3h4WFbSUO0jN7IuN4dWWVVq0hRcdhs0+OT+RcubrRP2Ddx2sDNvj7rf80Jio660xmb3ePgMfXaadsFqvDZreaLVq1hs/ldXfdPHbk6PbQbevXfbJl02ZycOdASmpbS6tRbyAtSavZQunpvXI5Ozlpb2R4RHDQ1qDNW6IiIpN27zlz6vTNzi6lXGE1W3pudh85dHhz4KbkpL3dXTfnPR/4x2U7Vhizurq6kJAQPz+/3NxcvV6PEIfD4SCX/uRyuR0dHW1tbf39/UKhUKNSmwxGvP1AMYfNTpuYPH/2XGDAxo8++DA+Nu70yVOR4RGBARv9/TaEbA3etzf5avYVSk/v2Ci152b32cysXTsTQ7YG+/tt2LIJHz4tuVF8/FjG5sBNARv8k5P2VpZXkEOpKOK1Waw67ZREJB4bpXZ1dLa1tDJodIlIrFGprWYL2WpazZbS4pLNgZs+WbuutLjkK8EMwzAEQUpLSzds2LB58+bq6uqFz6XH49FqtRqNxmg0IgjhRiLMaBTxqhTKyxcvhW8P8/fbkHUms7W5ZWyU2tzYlHPl6oGU1C2bNm/aGBgRFp524OCxI0cPpKSGBods2hi4PXTbiYzjNwqLujo6hXzByNBwQV5+VERkaHBI6v6UyfEJq9niq30U8VrNlimNVqNSO+2OudYNmae9tS0mKvrD1R/kXLm6yIyHhb/nc6asGDkjx6uKi4sDAgK2b9/e0NBw9180051y2OwTY+Okituza7eAx/cZbyqFsrvr5omM4zvi4kODQ4I2b9myaXPQ5i2hwSG7diZeOHeePkmb6wGZ0mhJ9kGbt1SUlYuFIh+zu0b6ein7k/d9/NGaSxcuzjonZ27y7j9nqTlWJLPw8PDGxsa7/4SZ6pBLZXU1tUGbtyQn7W1pasa9gjM9XMTtsZotGpWaw2IP9PU31NXXVFU31NUP9PVz2ZwpjXaexLidLolIfC7rrL/fhmNHjg4PDt0VlS/DV5pZREREU1PT0pkx6Ywrl7M3+gecPH6CxWDeYt/PcHU7XSaDUSGTyyRShUxuMhjnjpH66h3zom6nq+RG8ebATbt2Jna2d/i+umvkIbPPwGx0eOT4sYwNn/qdP3vu/4ZgFpr1d63ueRlqq2tCg0MWnWkyL+fcj329lJR9+7+iujEyMvIzydkKYTbQ138w9cBXkZm/v39QUNDJkycbGxsb7ng01jf03Oy2mi33lJndahseHGppaq6rqW1qaGxubFoYmhoa62pqL5w7Hx8b9+HqD65czraaLfMNy7vr+iXmWEk2iNvtrqurCw8P37RpU0hISFRUVMQdj8jwiPSDaSqF8i7MFr4gMy9lps3zKbq5ulGr1pzLOhsfG7ctJDQ6Mio2OmZhiIqKCg0NDQkJ2bp1a0BAQMmNYrfTNX8EdYlE7p5txTAjZ6CKxeK6urrExMSwsLA78sK/XIHMYmJirly5Qp+kTQ8MzX0a7g5jiTlWDDPyfu12u1QqJb3Ad9SL+JdL1Y3zpGrhx7k1S8TnytlSdGNjY2MtcbS0tDCZzEXmon+JfVew2BqJxNREcrkJD7FwhO91zekHc2RkJCMjw8/P7/TJUywmXatRGfRTdwhGg+7OobTkRmhocGRkeGNj/czEyLlCQK484ruZuV/dh/gKk7PbMMPXWSFes3TMLCVBriYxn9nuxF2FBXklxUWlJTfuGspKi8tKi8vLSirKS32hsqKssqLseMbRsLBt4eHb6+trfcx80kg8N+T9uIj4feA09xIPDDMbalfbTHLEZUa9ZE3NvrUnEAiKi4s3bdq0OXBTfFwMGeJio8kQGxM1N8RHR/mCL4/vLDISGrJ1y5ZNBw+m9vX1LmTmRZ02i9LrUBOP0exs8Ln1ei/jDwYzK3jVTuWAilFtl7aAqQ+8IsBmp4KbzeaxsbH9+/dvD90WEhwUEhwUvHXL1qDNQVs2EWHjls0BvrB1U4AvzCQGbtl8SwjasikuLqa8vFQg4M2sbQDEGglycNLQKYqWXeNSdoNHBGCaI3/3ktRs2Q8EM1QPDoaaemXgRsR4yRaEugfs7Ti2mcPr9drtdoVCQZ+k9VF6FoSbfRQ8UHq7KL1d/T2zgUyh9HbPC6MjQ2w2U6fTulyOWWb4akojwD3NaYillkUo+o95NTfBo3jIzNdHmo0AqgHXiId+ll/ux7r6W3vV72EyBV8VdcHhtDsWMy60RsNsMOu1vjCTPt8ksVnNbpcDXymXMDKJ17YBnDTgnna2rObmv8ErXu0e3gvGZvCKHzKbRTWnLszEqslt+qGj3JKPhbm/EVasB0kuWAbAxSXWTpqxTXCT2mdV+iK3LlOGIeAL00tb+XIuGjHii/A4J0BWIKnbJMx7lVH4vrxjJyYuAYw9dwnVBY/QPUp4IHQjbjSawa0AXYdp6ICsYvVkzl8FFWudAwmguAGuCcCMgOGrPuPAl50ZJsNX5OQel9RtZOa/yct/TVgfDIoqcAvmLQp4jxAtKPZBYDYrcG4hqKpdg7sUlf+Q5v/WXv7fjp5QlF8IJh6ODYh3mZaVmdNhQ9RdyESavfFtYf7vpMWv2zs+RbnnwMnw3ZUvsqBy71HCg8WM2JIIVNWW4XRxjb+w6C+cotWq9hiEdREMLWAfIRYNUwJGLrXiWxfwM+lGK2Ba3MBxMcBMQUTlUwPpE4XrGHl/5ZatU3bGgjgbsDEApQ+VL3KPEC0o9gFjRqzM7haCodfJypa3RNMKVgtu/K+y/K9TzYHAPg6GWkAn8MU3cWyzO1LcsuymrzHDfCznNGOYFt8cwdEByhzjzXB5+Tv0vLdGcv7Or99umjgNU63gYhIrGlt9qHyRBZV7jxIeKGaztePVgYnqEVa4hnc7mt7yFD8zVfCCpfl9R1+Mg3baJa4jtKUeb+TmEloYv9UGsdssduWgnX3NO5bs7dmgK3recuVxddF/2Xqj3Nw80PUCovbdw8LIPUK0oNgHlBkuQ0p8lWh7O3CO2jv9xOUfsIo/Gi9YO34jUNq2x8m6Crp60DeDqRPfMdY+CI5RcFKJMD4dcYzi6VYKmG6CsRv0XTZ+haz3OL0yjFHixylewy14S1Xxlrk7GkzVgNKIDRaNC1H5UhZU7j1KeFCZuQjVpwOvABzDoK5zsrJlXcn0sqDRnA+Y+f8Q3XhPVvGhpm6ttSMQGYwGWjK+SaL4NIgyQZxJ/D2Np0zuRwZjHV3BuuYAaeVaQfFHjIIPxnI/mrwRIGiIsY6dBkkpTtRDrJ2L6QAcPkILI/cI0YJiH0xm5NpkhFlPLNPttmImhldS56GfdQ3EORrfd5T+p7HgJ+aCZ+03nrWXvWCv/Z2j8U1X69vO1ned+JYx77pa33Y0vums+b297BeOwv9nzvuxKe//OYtftNe/5e0LR8aPuXlFoKOCQw+obToQ+zUtROVLWVC59yjhy8AM30OJ2ItJhBsg9jbgn/MMxOlbN6sb/eQ1HwnLP+CUfcAuWcO8sZpR9A8yMG+sZhV/wCn5UFj2kbTsQ2nlWl1zoJsSBawTYG0E7wigXGKDLQex2h/5Fx988RFaGLlHiBYU+8Az8y2ib8PX/cbUuJnuoOFbXJi6wdgJxnaYqkfExRZWjn48SzN0VDOQphk6ahg/Y2FcdvILQNMIuk7Qd4GxF9/Xxz4OiADfrwLfPu1WE2Z6a61FPDUkvwWVe48SHlRmhMfjLnUygxMzY045amZ59MMedTeqbveouxD9EGqc9NpE4DXfFsI8UVpsPHZulrvczrJ9/SVkNqezNW3KO4j11sltRog9RqZ3jdESS/Ljnm7Iq7IAACAASURBVPv5YS4KX/whs9s9dr4qumvkNiXMBUD2ml1Em2QlyBkJTuSuMfM2vZhz4qLXfsjsNjW+VEV1+0kxc6p+WoB8/g4ysjDDgpSHzG6H5zbp5HQdBzEHhPQZesgRrHk1uejpZDdg5i8Jidj/BbfUydIWEHqoGxetyqUm4uJDTo8h1Zd5xm3omQfsdnI2Q4tcb8KnG20z5bjmN10LgcGC1Y3Jaz/UjYtQnMZiB4/WY+Nb9Cybked1KInqXjozn3ZFyd16UNTqtKsxl5oo5yGzRSr+cyd5cHcDogenwKvtswiq1LR8DS3fLasDGw2wKQKAlRhmlJGDjYTE+IRST/SodMRm0xJwMMBMB0SKL8bvEBjEPcjUIN51Q1XEVnVEZnxDauPM3Ckrcboc/0vstoQDxvTEDtc6YkzVip/r4YFzFBwcvFhyJBbfAltG9L6NgFnArfGaeWDnEeUsaefWhfrjzilEN3T+Xse8sUYOjytTyFfd1/1iMBugWrAzQd7Ma0vjN++QtCWwq0JlzVHasUtgYxF1pMaH870DxKC+lhhhIYa7MAlgAmJDaiZ4R8FLQVnnBJ1HQNMJ1kmXop3Welw/eQXs/YAwiZEaPpGZjbt9cUg2vNJRLn4u7v4gJBsjfNDeCUDZ+CmoElxjoC4FzlHcAW0fJ0BKcN8xSsH9L5gItUnN0h5GxxknOxc/C1vSzq13JrTw20WZccf/OcyMuByI63WUo1OdCdhQPLD2wFg4dPvrepPAOuj1WsA0ZmPlwMRBN68ArEx8oqNHbZf3YYo2UDZaGbmYoAi0BaA5C73BvLIAC/UUJmsCeZWwJQmhnQBzLSYuw1OIzKjwBhgogIgxlw6ZGrIy8oB+CsTl4KKjNplH1QeyWmBdtExcNtNLQD0I5lp0KMrb/FdTxzZQVYNZBFM9bsZ5bGyfm3kO9B2YieES19CrY4C6D7wUwGQLa/yLp6woZjpAmI6xC/TyWNdkJuhugLcekGoQnTZTT4ClDQx9Jm4po+UAozaB25FhE9aDhQGWQUV/pmEowzWZKWhMUHXtRSfSgZ3m6AxiFAeIOtPNvDpQ1cu7DwDnNBhLVL2pU4MZ9skz3Lo4RVeSi30F7L2g7dGNX+U37ZY1Rmr7DsNUM6Lo0E/kqinHZI0JzIroyYpYK+0SaHI0DZ8qb7wqq9sMwmKXatTJK5O0JQor1nPrImysHEzdCfIydnX4V4YZqgZkDKEeY1bFegVF+LAWOgroCDj7wNwMhkrH2FFOc5KNXWjiVSmpV2mNaU7mNdBXSBsiLJ3hwDkE/BNWSqKqcStIMrx9kazKbU5OgVcz4JXUsOoTkYlDoM+VNITqO2OAeRib2K/vCFc0R4K+yEPPFDfFguQCsI5YBvajzLNuZrZ19ISsMcFG2ecdP8St3GTsSwBBmrs/1Nnl5xxMAkMTphpwcwpBfR0Yu3U3YzW9+128PJDl8aq3fXWYycHTB6MpjMoYM7sSNXOIIXwlauFjygbQ5EDfVn5NKKgaUDPHKW6gV8UCNQW0WVNVH0KnH0j2gSEThuLlVZ+C8gwMJ7Kro1FpLWaguyT1tOp4ZOwgTF2U16z39ASDLB1k6Z6eYGXlhyBJh4FIadkamEiCkT2W7mj3wC6gpqAj+7RNUTB2BKQn1fXr3ZSNwN0BQ+HYQCTQjoK1HVS9DtploB/B+rdPtQar2iIxVhbIs4VVW74yzDBcN3pol+i1yarhi155AzgGwNJjFVToqWdBnescSODUhsNUDbiHQF3HqE1wjR+DqauKan+sbxtMZYIjDxtLkdQEwdQVdCyFVR0L8jowUhFxNa0qwTV+GHRXJTWB3qE4MF0E00XvUJyo0g/4GVZKIrvYz9AZZemONnTF2Qb2OahH7KOHNe1JwLkE+mva1i2uvi3A3QVD4TAUCczDYK0DWZ1uIEPTuUPdtEXWsFXWFoNxzoIyh18TioynAjoA8OVvz6yAKjFlr2o4m163R9d/AOOcVd7cK2iIk3fuAX2xjXqcVR0NkmugLHDRz01UxprHL4GuVFizzd23A3RXwVnhGTvKq40AXb5r/DAuiKIymOrBxBW0qgTH+EnQFwpqtzmG94I5D8x5juG9uOBq8m3Uk5zqcJBeBOEpZOII8C876Zc0fRmSjnSMlwe6IkndFnt3MHD3wFC4t38bjCeDpcxBuyhoTADZFWAf1fYkytsTvcyzIL/Grg53jR/Ftfpic7PukQ3yz7L1EXy8yqZGFZ3W0RMwvAOoO5y9YTAUC9wMsDVg0hrd0DHPeDqMJloHU6aGT4G8GUwt2u6DMHEMjKXgagT2FVVPGpgqEPY5XnOSYfQCiGpAXi3tPORlZ4OpSn0zmTAgy8BchtBOKLpT8fnb4mpt/3E8feyAZ/I4TNVg0lr9xHXl0GVMWgumWl3XDtyOFR4A1h6sf7u9JxxUFzHmaVXXHtdEBkI/7Zg4ru9PB142qAoVnckY+zw+nw6704SfpcC7TVd3BY3FEC+ZYTbwiMHcD5JCB/MiKrgG+ipcz2A0fBqopkM1ekned1RNvQI6Cj7x20Gz8WoA73f3AzIG6i4rvwYcQ4iiQTJ8XTSYbxN0gH5Yz6rCVO1gHzSxS1BpLVh7wdqLSmuN7AqwU8E66Za1iCnnFP2ZFlYJnmKecMh6TIJ20I2AfcTKKgD+ddCUgbrETctS9WaApAKT1poYN4Q953QT+Yis3swpB1UrmHoNrFJM3QyYCOBOE36+HMxgehYiZgJEAS4OOFjgYoOXj0+XBzVgU+CRgZ0LVib+F1Hiuw16p8Apw7f88yoJP4US/+hVglsGNjFmlYCT2JoQ3xZQhu+96RCCU4xHvHJwicEhxj0a3ilwyTELF6xsPAOeogO3BlxqQKbAqwYHHxxccPPwYGOCiYFnc0jBLgYzH+wicEnxotwy/M7JCO5hudOEny8Ds4W/wQtw57DwlNsok1sd+Yt5l+cVtUg5vhy3Fjbt3Jw5wZdrWSIzpc77v3y6EQUvGQCz4y/0oSr8jRXMAJgVMDsG7pkMi9XZYi5zL6C3hvkIsVuhLlZNPu8+Mc8HH46xEj5GK4CLHAGY6+YndxOfV0NzPs5ob9QMqB73tKF6/NdNj/JMT+9Z8Jzhv2JmtAHB8EklZPAlzkaIN4/JmyTf9Jlz8dnoMjPzoNNToITgHQcvC1AxYCrinUwrCh4C21KZzfxO30/Cn+m5NTLv49yvZuK4ax8DcvyM2PUWn8kqIly6Zgw8pON/LrZF4xj+9JCDRGZ8Nj/+pgwfUDr+F3+RcNqtPHPRW26SeOxISB7yTjD8ccHjCwPh+dQDqp5+ZWSW09zYvWDmErkltSjjvI2RY+ZXe/VUHBuYCGYeYmxq7h3cIT5PDfkGWWYjt6kmX63hleUFh9utx7xGfIdkyzimbLHIusGjJKsMb0Qx9E6BkBKCmQ1AjRrGzMI6l+AGxs9xCUvt0hbUSAevBsB6m5tBvdOChW+7iyBmp9vgxZu6RZhhLrVO0AfqIbwRxVXCosfyMSNUog6cAkRDEVDOc5pS6c0H6W0ZU8xSsIwDIgYw4E8QIgGPkDAZTMS8RCuuZPBEwnbA1ameCEb8iUaVgIjwhh1/e9pBuEeJzIhiehN4TEfMa5MCpiAiU4ROlgDCB4+A2MZaDk62W9kB+k5wUEBRbRy/KBm6CjY6PiiDqfAb83Dxq+O7yjsANYBHgV/UK8YtWGTa8U8wMwIILPxyRuthXke6qDNVcvOgpOeQi3MNn2SH20p6AA14Jbgog5pQwsRLISAHLw88dHAOw1SbR9UJHj4xnKTAz0JY4BUSj7UeMzForedttBv4/Gj8NZFFj+VkpgOUj4irRb1n2e0nVGM5dl6JoPs4tzVNQDkP5lHApOCZJOYc1oF9iKgOG6By8NLB0gH6DrAO4W+d4GqHj2/X7WUCMgrWTjD245gxI6ASPLO1E0yU6fnYXjY4+sF5E5AhfPK9awKQYbB1gKEapurAPQCOEZBXSJt3YqP7YeoaqPOAe8HOvIbPGMckgNDA1AH6ajD14PWIGfELmfrB1gaubjC2ga0HvxnQEczUgNGcjHOTNTuk3Wn60VO2scPi+mBTx1aUdQocXQB8QMbB0gW2VsAmAETEYyEAbBTs9aDJA8FJ6I/V9e4DUxfeGUDGwdQCunIwtQEygZvHhn56XZpnNAsHjM5uoHcrumVkhirAQ8UmT7Pr9xjpBV51D35nwhso47yHkwd2ilfdY5687Bw+CAMxrrGTmKIdbEqwTwDnKowkuwYPmIeP454Ly02w9ICk3jZ2AcaOw2CydfiUR9iAW9XWYYx5GQaTHUPHjGPZqKobbF0I8wxKTXaPpZlHDqPcayC/io3tw/ojPEOJwDyNF05NVRb/HRrehYloEB4Caqq+Lw3M7aDpNk9etg7u8/SGW4YPg7oNLCLQ91hGTiADO9GRvVZKonc0DZVUgktIMJMDOoBNHmLXhBmGj6CC6yA6ZW5ZCy1vwmgE6PJQWY1pPNNOPYCO7kLY58A+iJo5LnGNi3YcHYqB7o3Q8i6UvWKsWA3M0/j4kfSGZygZerY7BvZa6VcwLQV07bzqHTB8GNwj+NO8+LGczGTg6nMPpdKq43FFhArBSwNkEJAOcHeCs8M8fmmiIl7QuItXu4Ndv1c7nA3yNtA2iBt3yCq3KOojeFVhxr50EOWCqsTYn0EtCufX7eLVJjJr90q7TyPCGlBXC6sjZaWB4trokeIo7dg1mKqQt0QLy9YxyzYzauOVQ5c87Muy5hhx1QZx9RZZ/XZ9V5Kzd4fkxj8sVf8ASiiw9tu6IsQ1IaAtttCyqRU7GDWJ9Kp4ev0+7dg1t6wNJCWMkq2cgg/EFes5xR+LKv2lPRlgYcxlxqveahneD/wskJw0dIY4u4NgMglEmVMDB+mV28QtcbzaMG7jTlBVuEUVsp7DtPJgXtmnqqq1U6XvGAr/IC9bZxo4amCV2xnZksYoSenHzJKNExWRZkYe6GqEVbH3kZlHDIZmFyUBd/TpewAUgPJw6xGhgKMJVNdtfXsEjbtAVg2qHgerWNic6qEeB9FlWV24Z2g/aK6A8LSDkqBpCgPhGScliVMVC5IKr7zDPJknaNjrHDoC3LOK6lAY2AviS4KGHdqh0yC6hPt22zfZh1NAWQnWYbDeBOUNoB8zdMXxSwOcvXHATpOVr4P+aNBmgjDNczNUVRsI4iznUDqnIQmV1oN+1CNrYTQfsdEvgyYfHyxt2wy8FKDtsrRt5jTuxswTc5mxSz/llX8iqvpEULVxsjTAPJIOqmzHcJKtN9o5mgLqfCfnirL3oJV62EFNN/bv49Vts4+mgeo8MPdBT7CpKx7UFeCg4rIuzUGp+1Wt0bTSrc7xk6AtllRFTDPzLkHOquNFzbHSoUu8sUYulyuXf9a5BYgIrM3QH0+viHJKWlCnCm/JzYNecZWHfha4x7GbobLGRDAMgEOPyNqFNXFACQf+IVVtCIwfA3sxGC4AJVxd/hHwDkBPpKA6Gn9NzyZ1C+pFtbHQEwnMVG31ZhhMBvll2+BBlHkWJOdsXduxnq3APgn2HlRPs/BrHaxcjHXOQ00TlX4CvfglJBX+QE0FWy6ID8HNIEPtOhCkw8AOUdM+ME4AhmIG+mRdKjKWDtpLotKPPTdDQHkERMmero2c2ljMNDqXGb9ival1I9a7yTO62zJ+GlW2gLHSRonDejYCYz/Y6rzyBt3QMVNPLNYX4hmIk7dEYuyL4KgCyXkY3mvsOwjmdkxLMbMKEdZFbPKYpW8vp5i4Q+1VeeW2WWaLdTlvGaeujhc1xckHcWY8Dlch+6zMUBV4Jz30c/T6ferxfLusE7Q3LdwyCSVT1JYK3Au23t38hkRQNIJ+xMWr5NTtdQ4dAtFlaW2Edzgd9HmguID0JejqNwP/MPRECiu3gbwSpgbs7DJBUwouZ7zz0prtju6dwDvvnjwN4kJQFeq6djr7d4AwB5yDekEPrT2L15ZuHTmC0I5zyoMcuFCeFVZtxVsOQy6IT9u7Y+S1wSA55xxK5zbuw9sVE9Mt66A1EXI2VcYqC7H07ADVRRCfMt+MotXt9RomELz7oARszEE7zaoJd00eA/U1cLcDOo7bGrZuM/WorTfaRU2FqWJEWKjpP6yl7LMO7jOPHBZ3HUAEReBsAek119A+Tc9B0DVNMUvH61Ll3Wn2oTTLUBq9LMQ5fhymSnk18Z7RM7hxhPfSFvM1zN2z7jbMSnntR6hV8fzmXcA7h48d41NcFjswC25bG4YMrPKJ+jRaTRKzMWW0cpe4+wTCLwRzk3HkzGhJrKbvhKzjCLM+VdZ71itpAG09tyZe1RBj79svq4vUde6ByXSQnYaeSP4NfwPlkLTrFKf5qLTnLN6eaWp5NfGapjjL4BFm7S7d+FVQVvJb9mh6UlFRMTipekEPvT2T15am6NglbdszWhxmpmaBtpRfHT7VFg/s08A/r+3ey6mNB22VhZY9Xr1H2nNc0HGY3nRYPJDtkXeCrp1avlPbmw7qYpBcU3enjNSlO3Q0N+YB0ALGNk5eGqreM0XLw1+lQTl4/xqM4GaDun5q4CCjJlo/dFjSkcyoT3Tx8my8AgU1m92daRHVg4sCsmJdTwo+8sfNlw1fmajdK2rfr+xMErfvHSmOMk1cBn0jvSbVSs3F+yq4k+UuzCZrdoib4+fLmXS8ZInMiE6+HUWMmGHUxsjBqOmeiZMW6hlUUILb9+5hVNluHL+E0rOAesBOPeuRtoFFArZxDysX1420U/aRE8C+BqoC/BnviZSW+sHkMZjMMo1lu8RtuN1oo3qY12HipJdxyTxxFZW3gqXXwS1BReVg6AaEhetGXrV58jLKOOXlXjHQruLufGunY/w0Pl4jugJTFZio2MYuxDsGmm4L/ZqbdgYZ3mcazZy+HztHz6jERNVg7gZDJyqsnGI3eu1SL/7CvB5AhCpbFIxqq4ZKTrzEwIOrTWwKnHRUVmOevIiwz2H0DAfzMhi7vYYJm3LQIO7xGiZwa97UgXGvGqhnQVWNSWvszGsO+nmMecHDzTXScomRh2Ezqwbk3bgLG73NCzuEnGGqdtXIeZKZYujyHN3IvPmZmGHgBrDjvVovCzyDgFBx09HLwXuUXiHux3LT8de8jG1gH8X7Z14jeCTgYeKDI/pOfF0d5zi4hkDXZOzPYNcmg7YFrP1gouLZUAMux142mHtgqgfcTLyDhc9iIya+YSJiZqMO70rr+vHeAkrHJ8RhErwnZ+rH+394J4yc+8bHu0eYDO/PmimgbwHzAN6DxgjXFCrDe4fT3UQ+oArCieMlHBNaXAIQKeGvwj2N08zI97sxPq7TzBSw9eJXx/tn2tlAerzsw2AeAg8DL9/DwK9rHwSU6JXiE/ckxG+UE0J2u43lcVsfU7Uqh/GeoqglXjaMM5u2QQSMLtkYLmfjVTvuqhsxzDvtDcKV5BThg1DgS1XhcR3hLDbhwxwuGbhF4FEBakIcJpdJhg+XuMW4JwJR4k4gjwwMdMlI5WjzVbdqDBwScKtwurjr2YwXhcjBrSSWTCJfciH8JvjYh5Xw1xnAo8afU9wxqMMVFzqFe1IQCSAy/H7wRD3hpDDPfCUGBL+f6WnnODnSF0P+tQA4Ubw9I+a/4l5vC34zuBtz+kUC4isr0YPW4NfySglU5IRXGzHt1YZPdcX0uFMKv9YUnhm/MRXuEsJvlbwlI/HcmAmnz+1WGTQCJsJUrYqRc5O1cSQz/ngTl8uVyWSrRHScGb9tScwWa+Lmp5GLDvvc3Ijb47Q7vB6E3LeMXMOX3JVWJpGyGEyr2UJ+6zuFjPi2955/ga/E58WYTTbzeDyFQoEzk1KLl5HZdJUSWzxPYyCaWXJ/QBTxTi+9jGJOu8NiMk9vLkd69omzSLoocWDY4kMEX3Zw85nh/bOJJj6fr1QqV4noHfeO2TShGWZzgQGKLbIz5wwzfE9cBPF6vV9xZsrR86RulA5d4ow1cLlciURyX5gReHx7OuLWLbHLuk9P4uLoM3kJgcOF0utFUfQrygwfTxaCuk1FvUCrixe37pAOXeKONwoEAhaLdW91o08NzmuxMC+KuD1k4jzhm4aHw5o+vuxqcLHft4AZbjdONIlEopGRkVUCxnR7Nll5d7txseJvkza3PVsoVSjm9SCI24O4Pb72bK4ixTXnzHGbC3ypk+cwm6zZIWyOkwxeZlPreTzewMDAKgG9Wz5aym89PFGxBD/I0ivKN1tgpomatgZndr0lGzMfsFltSSrJrzgzvE8tAnUb3p7h/bME6VA2Z6yBz+cTckbvllOL+a3py87Mpxhn1R0BbDbdx3WmwZtt2FDsod2I96lnmMmGr/AmmgQCAZ1Ox3XjHGY77+Jv/CxydovRcauqnO4DzGE2mzIjZw+ZTfepZ+SMO477QcRi8X1ktgAb2WObL3YzzGaas698/4xgJhu+QjLD/SCknPFa0sbL4/jNyyBn03U9027dIkCEDvQpQBTxknsIk3mm4d3KbOmC/eXKibdnqLJFPnx2ojpe1JJA6sZZf6OcWsxrSRsri11eZguNeNLEx+0OAgyKeOf2AabjD5nhT980M9lQlo8ZKWe478onZ2NlsbymhC/ens2Vs7k+RpwTYeLj8kSAmfWDEF/Ns/UftmeossXHTDqUPY9ZEa/l4Fh59LIwm9ZRM6bgrCUy4+CY1ZZzVaXPHpnB+ZX2g8yRs/GqOGHzjnnMOuTUe8JsLpt5cZ/dMduG3crsq96nXgozbvMBalnUF5ezWWOPbJZmbEUfpHmu4bnMZuPEWbNFfbmsi6X9mtn2bBE5E9FxObsnzGZEh2y3SCSkqvS5P2Y5zdWTZPP2lR+LIduzfwIzn49qLrNpVDNQSfNklh8GeDfA4/nq+vXvrBtF9C7FaBG/6SC1NAZ/3/vO866WJth4rhmtSCrDuTb9LVbJrSoUb/aIFHL87CEz2VDWonLWRdggeP/si7dns0x9MAh4Xg8yt7s2i21utjnxr/r42Z3ljByLIfvU944Zing/E7OHdiPpB1lczgT0bumy+kGmRW2ObiTHWR4ym1VCd4/N+q58upEz1sDhcAg/CMGM27ps/kbf/fiMdXImFunXIJso8itfzoUR3ylLmVvgcrmMRqNYLGaz2fRbDyaTyefztVqtzWZDEGQppS28mX9GCs4MU7XKh88uYCZbxWcQctaWPla5rGOeAHOZkXGfO2p5mYnF4qqqqu3bt7/xxhsv3Xr87ne/+/jjjy9dujQ0NKTT6RAE+WcA+BzXnGVGjnlKBi9zqQ1sNluh8DFrPXzvmJG3THK6K62lZ7ZarUwm8/Tp05GRkR988MF//Md/fOc733n01uNb3/rWM88889e//jUwMDA1NbW9vV2pvM2rCJ+jYu/hKdPMFCPn6HU7RS0J4oFLXGoDl82Ry6Wr+MwuyVjxEucRf5Gb9DH7IoWQ5yIIotfrh4eHT5069eyzz96K6baffvCDH4SFhVVXVyuVSo/ndhN4v/jdLUsJ0+2ZYuQcoz5R1JIg6r+Iz/1mc2QyySoBo4NkNla9rHN4Ftz5MjLT6/U3btzw9/d/9tln/+Vf/uW2lG794pvf/OYPfvCDN99889ChQyte2qaZyYfP+uSMN9bIZrJEIsH9Y7YA4udMkMvlNTU1n3zyyU9+8pNvfvObTz/99EKVeCss/NPjjz/+ve997xvf+MZTTz31pz/9KTMzk06nf847uB+nLaIbSTmTSvG5BdNyNl6TcNd3LO7H3d7tGm1tbcHBwU899dSjjz763e9+95133nnjjTd+/vOff/e73/32t7/9+OOPP/nkk9///veffPLJxx9//LHHHnv88cd/8pOf/PGPf3zzzTefeeaZxx577Iknnvj973+fnZ1tt9tRFL3bBf8p308z046c4tSGiqvXi5vDZTdTVcOXrawinBneP2s/MlGd+EAwy8jIeOqpp775zW8++uijP//5z5uamthsdlNT0zvvvPOf//mfr7zyypo1azZs2LBmzZpXXnnlueee++///u/r16+PjIx0d3cHBAQ899xzX//615944omwsLCJiQm73f5PYXK3i+LMQN2mGz7MvLF6+PRznek/HjnznxMXf8e+9id8nJqYr39svGrnCmdmMBhKS0vff/99n+p76aWXSBVHfnX58uWcnJyamprGxsaampqcnJysrKycnByxWOxyuaRSaVRU1Isvvkie/vLLL+/evVsuv91b6Her1Xv7/TQz01AKr/B16qF/6UpYRU9bJclYpTrzNR+zIyucGYqibDZ79erVTz/99EJmS6lAqVQaGxv70ksv+U5/8cUXh4eH3W73Uk6/v3lmmfGL/jya/s2OhFUTaasEJ76mPPsYbuvfk/dilvsn2u32vr6+l19+mdSKZL375GwpV1MoFMnJyb/+9a99zJ577rnCwkKZTLaU0+9vnmlmxsH93II/jaZ/s33nKmr6KvaJfxFnfXvGD3IP+tTL9SPJToJer29sbPz5z3/uq/FXX301IyNDpVIt8UIWi6Wrq8vPz89XwjPPPLN79+7BwcEllnD/shHz9TFVq3FwP6/wdVrG4wMpjzBPfkd4/geKK/+2cpn5+nNkRCaTFRUVPffcc4888sijjz76ta99LTEx0Wg0flZ31MGDBx977LGvfe1rjz766JNPPrlmzZqampr7B2OJVyKYocoW7WA6q/gD+qWXqOd/xcx/k1P6sbj6Y/wdCym1lNtyiJiTere1JpZ4yeXINo8Zg8E4efLkj3/840ceeeRrX/vaY489lpqa+jncvmfOnPn3f/93sif+3e9+9+233y4pKVmO+13WMmaYqYdOsKqD5fX+6u6dMsoRBfW6iVs6zYzXcoiYk7pymY2MjKSkpDzzzDMks29961sHDx78HAPZ586d+9nPfvatb33r0Ucf/c53vvPmm28WFxcva30vR2EzzOTDZ/G1Jlp3yoavkGMxt+u92QAAIABJREFU+NpJc8fPeE2Jyza34Avf+Tw5GxwcTEpK+uEPf0gy+z9BSU1N/Rwv786VsxXNzCvwKppJZqKWBMng5VlmIjr+Xszyj1MvN7PJycmjR4/+6Ec/WrVq1SOPPPL1r399//79n4PZ3PZs5TOTDWX5xmLmM+M243N4lnNuwfIxI0sSi8XXrl37yU9+8sgjj5DY1q9f39HRYTabl3gph8PBYrFCQ0N9duP3vve9tWvX1tbWLrGE+5cNM4BXgMibpIOZDzAz0tZ//vnnH3300VXE8eKLL0ZFRdHpdIfDcdfaRBBEoVCcP3/+L3/5i4/ZD3/4wx07dlAolLuefr8zfDmYORyOvr4+0vNEMnvsscd+8YtfZGVlsVisu9ap0Wjs6Oh47bXX5g4CPPfcc0VFRSvRfXVXZorR4uWf33jXWvyMGTweD4PBWLt27Y9//OMnn3zyb3/723vvvff222+///77sbGxFy5cKCkpodFoLpdrrquez+fX1tZmZ2enpKT4+fl9//vf9wnZ448//uqrrw4MDKxEN/FSmAma8fmNyzkn9TMiuV12n/Xo9XoVCsW5c+fefPPNZ599Nj4+PisrKz09/YUXXvjhD3/44osv/v3vf79+/brZbPZ6icUziRKbmpqCgoJ+9atffe973/PRIiM/+9nPQkNDxWLx7S79z0z/0jBzOBwajSYhIeHb3/72008/nZyc3N/fHxIS8otf/OI73/nOiy++eOrUqXnMqqqqPvroo6effvob3/jGPGYbN27s7++3Wm+3wv0/Exm+2tudbRDFaPFKljOy44yi+Mo8GIbV1dWtW7fuX//1X19//fXDhw8XFRWdP3/+wIEDp06dolAo83RjXV3dJ598Mk/Innjiiddee+3SpUufw/V1n0gunZmwaRnep17eX+VD5StWo9HU19e/9tprTz311C9/+cu6ujoOhyMgDoPB4MtGRpqbmwMDA//t3/7NJ2RPPPHEyy+/fOzYsfHx8XmZV9DHJTIbL49bgczIyalz55J6PB6VSlVWVrZ69erHH3/8F7/4xd/+9rdPiKO0tHRevTc2Nm7YsGGu6fHaa68dO3aMzWavRNPDd/dLYSZsSV+xzEgzxPdzAMDtdstkssrKytjY2D/+8Y/PP//8/yOOU6dOzc0GAA0NDaS5+Pjjj//0pz9dv379+fPnx8fHVzQw/K2iJbRnK5bZPAbzPiqVykOHDq1evfrll19+6aWXzp49Oy9DR0dHZGTkr371qz/84Q/BwcHt7e0ajWZenpX4cYnMJiriV6BuvHOFejwepVLJYDB6enoqKysXTn8TCARNTU1lZWXd3d1isdhsNq/42ajEL/4SMyOJIghitVrVarXFYpnH2GKxKIhj4Vfzcq6sj196Ziurupflbh4yW5ZqvK+FPGR2X6t7WS72kNmyVON9LeQhs/ta3ctysZXPzGq18ni8ioqKlpYWDofjdDp9Heeurq6ysjI6nW4wGMiuNI1GGyQO37iXz/ePIIhGo2loaKisrOzu7rZYLAiCGI3GsbGxuRNP7Xb7+Pj43JSF9exyufh8vkKhcDqdcwd3Fua8JykrmRmKom63m8FgXL9+PSQkZMeOHbm5uSKRyGg0SqXSysrK5OTkrVu3njlzZmhoSKVSlZeXZ2ZmHjlyJCMjo6qqisvl2mw2cjUzFEWlUml9fX1sbOz27dsPHDjQ09MjlUrFYvGVK1dI97FAINBqtSqV6sSJE42NjU6n0+VykRPuPB4P6YMmXdJ6vb6kpKSjo0OpVFqt1s86i/KLglzJzNxut1KpzMjIeOedd06ePJmQkODv75+bm1tbW3v16tX33nsvMjLyxIkTf/jDH5KTk5ubm//yl7/89a9/DQ4OjomJ+cc//vHuu++OjIzY7Xav1+t2u0+fPv3qq6+mpaWdPHly586df/jDHzIzM5VK5ZkzZ9rb2/9vcfp169ZduHCBwWC8/vrriYmJLBZLKBQajUaPx6PVaslxHJKiWCzetm3bwYMHu7u76XT61NTUF8Xwmc5fycympqauXr2amJi4a9cuCoXS0tJSUFAwMDBw7dq16OjohISE4uLi4eHhkydP1tXV9fT0/Pa3v3333XcPHTp0+fLlDz744Pnnn+/q6rJarQ6Hg8lkpqWlrVmzprm5mUKhlJWV7du3r7a2lk6n+/v7JyUlXb58+ac//WlYWFhZWdlPf/rT119/PSkpKTY2trGxUa1Wnzx5sqamRiaT3bx5k0KhNDc3+/n5rVmzJjg4ODo6Ojs7e2xs7P55KVcyM4FA4Ofnl5CQ0NnZOddVkZ2d/dFHHzU1NanVahRFyX1IOBzOW2+99emnn164cKGqqiosLOyNN97o7++32WxGo7GmpiYjI+P48eMqlUqhUAwNDXV3d9NotP9rEV966aV33nknPj7+Rz/60f+5+bOysp599tkXXnjhrbfe+vGPf5yenj45Ofm73/0uISFhaGjo5MmTmZmZ58+f9/f3f+ONN37zm9+8+uqr/v7+WVlZ989X+eAya25uJpm53W4EQbhc7jvvvPPSSy/95je/ee2110JDQ69fv65UKhEEId8/O3z4MMmsvr4+MDDw17/+dVpaWmdn5y9/+cvExMTe3t4///nP6enpvb29L7zwQkRERGdn56effpqZmdnd3f3KK68kJCSMjo5evHjx6tWrOTk5fn5+KSkp7e3tY2NjJ06cCAkJuX8TEVYyM59uTExM7OzsrKiouHDhwsjISH5+fiRx5ObmUiiUo0eP1tTUUCiUV1999X/+53/CwsIOHz5cW1vL5/MdDgeKojabbWRkJDk5ee3atd3d3ZWVldu3b3/qqadiY2M7Ozv/67/+Ky0tjclkvvrqq8nJyd3d3c8//3xycrJAIAgNDc3KymppafnVr361YcOGS5cubdq0KTU1NScnZ8OGDREREZmZmfn5+fv374+Li5NKpZ+pVfr8mVcyM9IGOX78+DvvvHP48OGtW7f+7//+b1FRUXNzc3Z29p///OegoKAjR4789re/TU5Obm1tfeONN7Zv3+6biuobEfV6vWaz+ejRo3/84x+zsrLy8vIOHTr0yiuvHDx4sK+v7/XXXz958iSLxfqf//mf+Pj4mpqaX//61+np6SKRKC4u7uLFi+3t7e+9996HH364bdu21157LS4urqCgICwsbP369evWrfv000//f/beO7qKI130Za37x1tnnXPeffeed97MnLsmOGAMBnsccPZ4HDA4gNPY5GgEIgmEckAoIHKSUEYSoJxzzjlLe29p55yjds6h+3vTarS9kSWSCZKPetXau7q6qrr6+/VX/VV1dZWfn19mZuaTs0TmMzPc1mcwGKWlpSEhITExMQUFBSKRSKfTicXixsbGq1evhoWF3bx5E29RxcfH5+TkuMehultmLhe29haLxSouLj5y5MiOHTu8vb3j4+OHh4cFAkF4eDg+LciZM2eSkpJKS0t9fHyKi4tlMll2dnZTUxOTyWxvb09ISAgKCkpOTq6rq+vp6bl582Z6enpKSkpQUFBRUZFSqXxy73HmMzO89rBYLEKhsKmpqaenh8fj2Ww2AMDt75GRkaamJjabrdfrzWbz+Pg4g8HAZ0FyA8PHjCAIgudTXl6ek5NTVlY2MTGhVquNRmNvby+bzTaZTENDQ2NjYxQKpa2tjclk4jP58Pl8nU6nVquJRGJTUxOVShWJRGKxmDq1kcnk9vZ2Fov1EN/g/DbrxrtclRvJDI87iXseM5yZa7bNswsDRVG89Y3ngCd3t8fxo06n03MuNewt/52b++yP1zP/9WzW679TVj/vuSO7meHHPCdA8/R7xsdj4iHuJoR7UnhPiu6YOEu8i8RzKJE728fiWaDMZsjCDc1973sqhOdRd4S5ROyGjWumJ+AZuohn5V6lcq4MZxT1Eez+d2D2QGJyg3GT9vR41p+LzB5IsDMju8XqViNPPZsZ+6777qzu4nFnMCOOO/zxen6reuYpzccrwSef+2+D2ZOX29M84yKzpyn9hzv3IrOHk9vTTLXI7GlK/+HOvcjs4eT2NFMtMnua0n+4c//3YIYAeLqHE9W8SbXIbN6guO+CLDK7b1HNm4gLlJnHylr4mmiev+7V7jDPnbXi4959Ilz/mzFzAszqHhXLRWZzS+Bh9WxWYM5Hp4tzl/gRHvnvoWfTqFAbuIxgUYFBhjmLCttFbYvMHuEdNWdWD6hn08xcRrApQURwkFodpFYQEbBdl3GR2ZyCfoQHHpKZRQUigq3hBi05gpYcYWu4AUISpm2PzFR5hJc4d1a/vbpxyspwYDUearntEBO49ODUgpIGHTni897tXp+0e30iPu8NzVkgJIBRDhYFGGWgFYFOCnYDoA4Ax50Gy/3YKXML+hEe+S0yc4DLAk79z84+CVY5mEXA6lReOiQ88jHb6z2213uSwx8pYndDYzpwBkBFAcEgDFVaemtAIwLENvWc88S2yOwR3ndTWblrS3CYHAqBnTNuoo+Y6CNO3gTwx2Ck3tqYZboeJjj8kXb7Sv3OlZqtL2o3L5N7vaOP2WFNPQFZ0XA9zHzxMD/phIvUCToVIJYpbZt+Ft5X/fmor2rW/Baont35BMKvDMFqM5sBxHRNa4m28Ko865wk66yhPNFVlShNDCIFb+rd/cHIzjeZu9/k7HuPsedt+k9vE70+6vde1+L9VfveNb27PxzZ8V6/30ZNfTYqpGFqilg8qsdFPZv1DnqAQE8JTiVDneCy6Pl0QWVGf+Bm5r6P2Ic/ox/6lH54DefIWvr+D6m73h7Z+fbArvf69386emwDLWIbPeoncowX6ZR3b+hPPQe/Htj99/Ftb475fmetTgfuGNgmwWlaZPYATO4V9RfMEAc4jHbOuKbgysTOd9Xr/2jc+IJu0wvazcsmN78g++F53Y5XtAFfOa8HW0riLNUp9tZce0eJo6MIaS+y12WjBZcgLdQU+M3Y/s9YF47b20pAzQWb/k6F9jzprP57lfqRHF/gdSPehTElCQQBl8MpF1sb8kj7PpV9+2ft5hcM25YZt78o3/0qY8/bsvAtzrxzwB8AowBzJgGYeGDkgYEDeg5mg3D70aKrgyE7Gn2+FaVHAK0Ta3eji8+zR3KjYZkg07XW1PKNuAWCAFgRIPfRgzdJtyxXbFs2ufV53dZnePveYZ7YZqq+ASIKGBRgM4FNi7WmrVKwiMEiApMIjCLQi0DKgaG68QtHGFFbObdiQUb3MPpnVawZgY/s8u6W0ULWM1wD7mTmAhCw9Mnh+iMfSLYvV217Vrv1z5zjnxkrU508FjhsgACKAjidYFA4RVQjY8hMH0DYo6icAzYL9nZAzYWOW+YrOwnn9qP0XrCYpq3HGXhm3b2bqB/Zsd8UM3RK/eQ8qE1BIzdwd7/E271M5vWS6MwOrAXmsIHDBHY96CUgIlknWmXNN+mFl1gFF2QV8Yb2HKB3gGQcJkmgIUDdtf64AM1gHaoUgMt0332Sj4zL3TJayMzwO33q6tytMxRAxYbWdNeZ72h7X6bufVlzcp299BzIqYAg4NBiNeFwCSUjvOfs3o6Tm9tDv+0K+WYg5Jvh8G/Ho/5hzQ0EUhGoRkAwqBuqZTfmWWi94FQDYro/Y+Ruon5kxxYsszslgE7vogAKmqPsojnma/qRd0YPrDZe2w0jxaATYlGMUqA3mnMCJqK+lcTvMqUfRrOOQuYBy+XNivCPuN4vmoLesN86Cuw20MudIiq9PsdFaAKb/L77kaeL8Vj/fyPMsG8rbIBowSoCduNk6n5t+Hu8oHdHjr1lyT0Gok4wSzFmao6yIZETt51wYRt0JAOrASSdwG2C/ixrbiD7xBrmkZWkiC9sbSkgGQM1XdBTZWEMYh2VWON61gfYjMDHymo6898OM0QLDh4IGlzNsZLza3UhywVhr4+Hf+iqiwYDARwKrPpUUIk3Q+U39zm7EkHah5n7FgGY+KBhAbvJWhqhvLiBELmOcGW3pTcDTDQs3KSeAuZYZDZ9y/zKf8/HmFUAggZ7W7Q87Ttp1CvGoD8KT6wiRv/d0noW7BPgUmIGinxi4LqvudwPxE1g46MwPWAEBTDygVFpzfMZi/p8KGa9oyYKVINgk2KW5H1pmMfD9Vde1D2TL2w9mxYoijhBPW7svCjN2MA89Yok8kV9+J+FJ1eSYt6xN0eAZRicIhQQREEazPRDWsLBPABO4XQLzwkoAg4pmEehKXokdv3w6fXmihAQtYBV+CDAplod95T4r4/wm2DmRBxmlN/CurlDcmnl5IWVunMrTGdelJ99lXJqtaP+GGhawcFDwYFMjhPygpG2MNC2YxUp2KZekjmwFphDClYSdF0gXd00fvVHZ20ICJvAwv+Z631p268Hch85/CaYORCbCTjVovQNxnN/sFz6i+nSi6aLq5QXX+NceMtcshNoN8BMRcEBRppmINncEKDuvobIhxGbAVwWp0mDNZydUrBNOHrjiInbyQkbbZV+wCwDM2eR2X3cRA8U5Xbd6MD0TNIvrD4hvvGdJOUzybUPlHGrpddWixJWT2Z9YmgLAE07oHJwMEDVrei83FcYpaDWmSZpToPIoOQ5DWqwc8HYgXSH0JI+YyX+3VywAYYugmYMXLbpLscZJuKsuw9U+oeN/NvQM+y1sk0GapJ5vEhce4J1YyM/5RNR6rvS1Fcn01+Sl28CcR44KICywEFHNaMabquAVMEnlgsorWoxBWNmmQBxtqtpGzfpr6LEF9Upz0uLt6OsasSgAwR/Wz0rpBmBD4vhgdL9RphhYzcwyRr0WgOv00pMtbYcVhd/obj5ij7zT/LCjye7/W2CcnBMACp2oXqnlWuW9diFdRZpr0vLBqsB9P3ocLi17IPJzGeN6b8zJf+rOOtj13gWqNXgckyp2gw8s+4+kOwfNvKCZeYpMudtUwIbI4xgdaCTCqISW2+gvPBjbc5Sad7b1JxPlL0BIL8Juiqw9oCzG1xd4OwAeyeYO0DXAYJ0Vc1Gdf7qyaL3DdVfqcu+5lX5mmj1Dq0aEHdntOdJZ/U/LIYHSvdbYeb5lssIiBJsTJCXmNp/Mpa+qih4TVj4pqT8Y3nDd8r2XbaJUJBdA30WGAthMgPIJ01dB1S138qL/64qWK2q2QjCNFA3g3oUzBJwOLCWwH0ZjYu2/j1uvfuQo3FA1+dvqn5PW/ZXfdlyY9lSTdmLqvJVpqYPHH0/2se8rYRg59BeS/Maa+Ur2uKVqsJXbPWfOIlRYBr+GRJm5ri3e57UHfNxen4TejaHKI192v5jpvq3tTVvaGte09W8pqx6S1T+DrfsQ07Zp8zytbTyr/mlf5eXvGYoeUFT8Za8ah0y5g/qcsy8/PlTjDkyn13zHicqd96/ZWamHvXAEUPT65O1b6hq35LXfSCu/YRX8yW75jtuzTfc2q/4NZ/Lqv6mrnjVUva8tm6NnRgM8kJwEACVeDwgPWvde/Jzy/Vxen7LzMy9hjEfU8uryobVk22fmoe2INSjLkaYjR5rpwShlEOW/h/U9e/pK1fZyp9XN2ywsxLBQASQAminmS2OSX2UN989b3kEbBQDK0U9fFDSd1hNjARRGliqAWkFRxuYqsFUAtwr6t4jisYfNHWfSzuOOESliIUNoAYw4i0HjxryPr93epRXOGdeM/XMXzB4nUGoYzAYIol4CY/cJRkt5jadnVpnMARYSYCMAiqdM7snd+A+mKFKsJHB3AmmfrAQwc4ChAMIG5wscNLAOQG2UZis049f0Y+EaylpYBwDFAf20F83PZHrn2LmkjSKhhLGq/14Tf6CwVQPZhPdU8zOk8oCuQ3zjplBr+XzOGOjw2Ojw0wGzWY1/2zvYe9ZnCg4UHC4AHEBuG6PzXI6NXK1mGNSy5wWAzjkrskhVN7oVA+BUz5dJSKen/p6cLjnjeIR9/F5UQ0gXE9mwqG0O5iJCGWs1gtj5YHsxnnEzOVymEwGOo3S1FhfWJBXkJ9bX1cjl0kcdqsb2xQzHBuCDbVCweVCbUYdj0oa7GrhMalGnQpAjz3AUA4gMkB1gNqxPn7UNd+ZoVyntFE0FD+lZ344MzqTIZIIl3DI3XxiGaX98nBFMKMpdP7UjSaTYXCwPz8vJzPjOofNpJDH29taBgf6JOIZb7zcXRjYEDmj0Tg6MlCYdys9NYE2QTTo1QCWqaeXFlADoNYpWq4FxIxUdZzX5CccTmUS6xksJsaMTenmEMtI7Vf6K+cXM4VCkZCQcDPzxvDgkNlo0mm0fC6Pz+Up5QqpWFJdWZWfm1dRXkqnUbq7OnKyb+Xn5dRUV7a1NtfWVMXHXYk9FU2eII2ODFWUl5YUF5aVlLY2t8gk0rGR0aKCwqKCwu7OLgGPb7faGDR6ZXlFcWFRUUFhXU2tTCK1W213aCFe5T6+mvCXOaMaQLkuWZN4+Bqp6jjfg5lYKlrCnujkEEqIbRcHygPp86luFAgEBw8ezM/NQ12I1WwxGYx6rU4ulYkEwoG+/oPeB3Zu3xEU6F+Qn3vp4vl9Xj957/cKCvS/cP5sXm52YkL8pYvnR4YH8/Ny/I4fO+579NCBg6HBIcQxwo2MzG1bth45dPjShYu11TU4/uPHfH2PHtvvtc/P9zhhdMyoNzxlZlhThOfBzHdKz2oZLCbGjEtq44wWjrecHywLpDcGz5+60c3MaraQxyd6u3tqq2suX7yUm51TV1Mb6B+Qk5VNGBs5c/pUYUEei0knEccK8nPPnT2dm5M1ONDHoFOLiwoK8nMb6muZDFr2razQ4BASgZibnRMcGDQ6PFJUUHjyRERNVXVtdU1VRSWDRi8rKb14/gJ5fGKeMfPlN2HMWKS628x4xGbeaOHEFDPWfNIziUQSGRmZk5WNV4lUMqWpofHoEZ+UpOSeru7Tp2KbG5skYmF4WEh5WYnDblUp5VWV5bGnorOzbhIJo1KJqKgwv7Agr6uzXa/TlBaXBPj5jxNJBXn5kREnxUJRRVn5MZ+jxYVFNVXVLU3NBp2+raX18sVLlAnyPGGGyJvFw9fGq4+7mTHZLEzP5MQi2UgyqyWMWH6Q3eQ3f/RMrVbn5+cX5OV3tLWzGEwmndHR1h4eGlaYX0AlU+KvxnW2d8hlkosXzhUXFXA5LPIEqSA/93RsTHbWzeGhAaGA19rSVFpSVFFeSqVMZKZn+B/3myCNFxcWnYqOEQtF5aVlx4/5NtTV19fWlZWU0qm0spLSC+fOzx89m5WZVMpdoiel6EdOS1oOUst38Rp95g8zp9OpVqu7Ojrjr8b5+R4P8PO/evkKiUAUC0VuZjarmcmg3byR4XvMJ+JE2LmzpxMT4gvycwljIzqtWqdVt7U2nz0TGxwUEBQQeOHceRKBWF5aFnflqkImr6mqjow4yWGxB/sHkhISgwODQoKC465cnS96hgqmmfl56plcyljCqtxPyf+OmrOGnLeBX+89f5jhxpRYKOru7CopKi4rKe3q6DTqDXarTaVQDvYP8Lk8FHFaLaax0eHCgrzqqoqO9taR4cGJcaJMKnbYrSjiFPC57W0tFeWldTW1A339MomURqEODQyajSYmnYFnKJNIB/r6K8rKa6trBvsHVArl07cbQQsYs1bxcOJ4tR9uN7JIDUw2SykZX9If92pz9B96L/5hPPMdYe2u+cZsFvvNc5Tq1OsSFHEi2OAAvNXlQlwObDDk9O7tBjg2XhUfoYreI0/P/D39v7TIH2PIrMzq6Eyakte5hHTldz2R/2Ps3P9FTX9ZXLt5gTK7A5KbFu7BX4MtfGZsUi2ZQhAScpewLi4ZPrGEcnYJO/0Zac33C5SZp54B6pqheZjOIb9QrwdVu8eoVb/MeqaeiYeS2aRaOm1cNZ6+ZOzKH7ui/mXkwr9TM14T1W6fd8x+eTl3hGBdugjidLkcCOJEURfuXC6H02l370557hhB4F7A5Mkt23NHse+5cwczvO+KTapls6gaVuWSkYw13XGvjaa8Rs39XFDvtRCZ3cnmNrZfBC5YZlUBnsz0or4lvPZoVq0PvXQnpXgnt+HoQmN2zxt2gUbA9AyVTdmNGDN/4XAqm1jHZtEmJRNLTOwSIyVV2hFCLvfmNh5fZDY/IM/OjMWmKSSMJVJq7SQ5h98RQyo/ym4MWGQ2T5kNpbFIdSwWA+sH4VK6ZZRKbsfFsQr/efXOc37I7mmV4hd6hjFrYLFYEolokdnTonL38y4yu7t85uPRaWZDyeO4DTKUvqhn8xGUR5n0U3ZjmxhjFsRrChT+zEyyWDd6CGoeeReZzSMY91mURWb3Kah5FO2uzDjkLslEOaf9wqKtP4+QwV2ZsSc6BYRiZsvZx8vM/SJqPglmHpdFD4gIld1pgxCbptpnEmysHH+s6NcycyO5iweBWV423lNsd8nwPg/d8xTzMcJczDgSiewRMZtx2VPSRLGvlJ12cNjB4QSnCxua7TF75owkc+3eJ5i7RJsr53kd/pSYucBpBYsBjCYwmcFkBYsd+x5i+uOG+xTZXWDc56H7PNH8ivZUmCFgRS18i4CoJQ5KBwgKIkvPnnSo7Nh8flOV5H3K6D7B3CXafZ5ofkV7Isxc2Nd3Tjs4DWCUolKWgzVmGGvg1ueM5qZ1X88ayK6kVHaKu8dNEzyUpwKVGUwurMLE532bRWCuqXrVClYzmCxgNoHRfFtfrXbs4yXnLGlmvtecJcoCCXoizJxYTWgzYJOjC4p5ZVE9UYcLj/gW+Z2oijjVGBvbeDakNPxQzhH/yoBr9MRea58MFLbp59yscrRjUwubVKCUgkQFKinIRCASY/5JE5hsYMOR41+e3YY19YcCuKbNnVlzXgiBT4TZlIaZqAZGAbs4uC/0EOFIBDUygZOQJ8gvlpcUKkpu8LLO0S4eH/E/QDh8hniuU9Otsk/a5tIY7AskqwqUA5rBSnblqGusXtGQPpyRP54/oBmUg0ILGovTbHVZsKUtHHaj1YJMVbkoClanw+Jb+HjxAAAgAElEQVSwWxx2m8Puwj4jXIjb42Tmfo7osMlIRfmcwqCq0IDa4Ovc60MwxAOeDOQykEsxJ6UBs0xVHtkfc7TEN2U0tVfbrwK1BcyzCtWITYkvyqcWRNVFV0/WXh68su/6/oiSiEpaFR1ljOpHx/TECQuF6WRPmGhjk0SakSlySSUgo9joo+Zxso4mM8utdhtewllPMY8DHzMz7KNYADFIKxQ1QUPhx6r82zRtfOBPgkoPOjOYTNNOA1oxiMcMYwWMokMFR+KY15jA1mDf7cyyGcDAA34Br+B055lKQ1UiMzmyOaqUV9avHmhWtoTVnAhvPXGFEH+NmBg/mnipL+5E9ckcen6nqyeZkRo5GH25K35MSTJYjVOPzFnyn99BT4QZDdixY2f2kw5focZzgIsPBJ35i40xRKx2y7Bm1LfOz5cSUGqoFIJoVvHpQM8Gdp4o/1T/qRJz2VV2/Im2iHJR1YBmsEpV49N0LIR6Il6bdLjnWAz9TKIydV/9wYvMK8VQHswO3zt24ORA1KB+xGQ335MZimIfiGLLKPzqbUZWM3YfJPvHzgyxg5NkIR+t9Auihra42mUgm6XLAxPK7XGgLJRzeeLqwTGfc8MXWAh71ovRgpYFrCxJVnTPqQp9ZTI5Jbo6po5dPyYfbZW3nu08n6POa4MOv/aAOF5CNdQGtgdfYydWQU0kJfo4ITCOlEAyTZgd2AMPW9hiGolbjp4eZGrpC3ecWcvjGd/TPzVU8jZ1FJtd92e/5y6e54yEs55oKvAxM3MCYnCZhlQjviX+F3lxDGBNgnp6aLx7sO4dHgGIyvRlhwhHj1b6UqzUWYuuBS0TWOmSzIj2k5XK6pyJ3LS2NIaRKdKL+/i9VxvjykTlBCBdp6dfJl69MHrpeI1/BudmC3RED8ZE9EfemMga107oLQYbYrc7HW5jBFsnyIUhxAWK77pcKC7rWUuCB7qTuFyo04m4XCiej5uZO9yNzTNzz0zwrO5yLuy7/dn7Gx+678pteEyNp3aCU23V9or6w0pOpPEyRSDWgf7uzMQgbYGW4xP+3kUHqWbKrEopB3n9ZMMlxpXLw1f6zP1j6rER4ajOpbNarUKNsI/dP2GY4IOg19pXp20ok1Xk8QryeAW53Py0ifRM2s0qVvWIeEypVdlRB87MfY8jCKYNbodL3y3oubQNZ4xHxhm7Mbtx4izdWeHM3IHuM7oTzo3t8TNTmiY7uF1h5RHXhZlCEOlAe3dmEpB1QVcgLfhuzOyyotGS68T0am41DwR6MOC9XwBgB4cVLDrQq2BSCSoxSAQg5IOgWdyS0ZfZKGzqVHYNSAbHeAS5WuEAJ85shijxXTcw91E32l96PPVmrqM4GPdRBAGnE3Fjc59urjtjmuJjZuYCRGmabOd0+hcEJfCT+CDSPApmFsTM03HZFo4MkWtBZwGLc7ox58IWXXJYwGIEgxGMWgyeWoGqRDYJU8sel5FpkwyhUaQ0qcwOCwIoVpNNV2W4NHFC2PIyDuyQ54PHLe67eHAweGWI8/CM7HKh7mzRqSlL3MzcFfLTZ2a0m4cVo/5FgVdYcQxg3s/zrFRXenzCP7AhmGGjz1o3IghisVisVqvZbJZIJHK5XKfTuVwus9msUqkUCoVMJpMrFTaH3Wq3afU6kUQskoiFYhGDxRSKRZMatVAsUms1FptVrlRIpXKZTCGRyHQ6g83m0OuNKpVaLlcaDCaHw4WLcnJSw+HwRCKJXm+0250KhUoikbmdQqGy250Wi02lUrNYHLlcabc7nU7EYDDJ5Uq5XDk5qTEYTC4XajCYFAqVzebAlUyt1iqVk2q11ulEPNFOq9Ss/49Zz1Bs3iKEbmEGV4aeopzuRnskILGBzQ4259T7F3c9iddpJmzJD1rcxDX/kYD40Ws8F3cuZna7XaVSkcnkioqK6urqoaEho9HI5XKbm5urqqrKy8tr6mpJE+NsLofGoFfX1pSWl5VXVpSWl/X09Y6TJyqqKgeHh/hCQV1DfVlZRVlZRVFRydDQiEgkGRwcrqtrqK6upVBoGo3OarXzeILGxub09Mz8/EICgaRQqFpa2vAkRUUlRUUl9fWNcrmSTmfW1tanpaVXVlZTqXSTyUKjMSorqysqqmpr63t6+pTKSTKZ2tLSRqcztVq9wWDq6Ojq6uphMFhWq92t0LOC8gh8nMzw06AAbAf3bPeFYwP+1yiJVKDrQW8Gkx1sbmBYywws+qmH0Agy6lt1/ORoVLupQwHyWZmhKOp0Ojs6Ovz9/V977bU333zzwIEDXC43Nzd33bp1f/3rX5cvX77qlZe/XP9VVEx0Slrq+3/7YOmyF55/Yemzzz+3eeuWiMiTb7y5+ri/X35hwd/+/uHzz7/w3HNLn332+aNHfQsKirZs2bZ69VtvvfXOyZNRfX0DHA7vwIFDb7759jPPPPfcc0vDwyNaWtq2bt3++uurn3/+Bdx9/PGnLS1t0dGnli9/admy5atWvfLDDxsZDNbVq/HLli3H3UcffVJSUnb69Nn1678+dOhIY2Mzk8n+4ouvjh717enpw7UQ1zYPPLN6HyuzaRtSCrJqXW0YJcK34Xguo4BiouhBb7uTmQEMYpC0TrYljiQG14Zk8DMYwNCCZi5mCIIUFRWtW7fuP/7jP37/+9+vX7+ewWBkZma+//77r7zyyo8//uhz7Ojyl1b4Bfh3dHWeOXf2gw//9v/+f/+5d59XcmpKcmrKn5/5y+6f9tzKznpu6fMfffRJRERkRERkcXFpXV3DG2+8+e///j9///v/2rlzd01NHZE4/u6773/wwYd79uzdsOGbPXv2RkREXrp0xcfn2EcfffLHP/7588+/PH36bG5u/tat2//4xz8fPeq7du3nr7zyam9vf3Bw6H/+5+82bdry3Xf/WLNm7eHDPj/95LVhwzdr1qy9dSubTKauXPny4cM+XC7fasX6P+cRMxOYpCDPFeYfL/ULqzyRS8sbQwg0YPCAxwc+H/gc4Iwj453Grit9V3yyj6YOp/UYetSgtoJpLmYoiqalpb366qt/+ctf/vSnP3322Wd0Oj0nJ+err77asGFDXl7eOHli+Usrwk6EW2xWvdEQFBK8bPmLvf19aq2mb6B/+Usr9h/wLi4tWbrshcjIaKcTwW0HEmlixYqV//qv//7cc0u/++4fBQVFg4PDy5e/tG+fd3d3b3Z27sGDhzdv3spicXp6+sLDI95++924uGsymSIlJe3zz79cvfotMpkaFRWzYsXK+vpGX1+/ZcuWl5SU5eTkHTly9P33/7Zt246goJC33nrn/PmLAwNDq1e/dfr0Wbel427Vzapf04FPRM/s4DCAieFg1Qrrw+oi9pXuP1Ljc5kSlym5la8pytcUJXFSI3ujD5UeCagNTh1OI5lJKlBap6zBuZi5XK5z5849++yz33zzzZtvvvnWW29RKJSsrKzPP//866+/zs/PHydPrFj5UtiJcLPVYjSbgkNDnn9haX1jg1gq6enrXbb8xf0HvEvKSp99/rmIiEhcWDabAye0bNnyr77asG7dF+npmQMDQzizoaGR7u7eW7eyExKSpFJ5a2v70aO+q1e/hTNLSEhat+6Lt99+l0KhRUZGv/jiCpzZ8uUvlZdXlpSUBQeHvvfeByEhYfn5hStWrNy6dfv16xmbN2/Nzs51Wx+4yTrNZq7/J8IM6w4AcLicbCe7WF4aw4o9NnrcZ/y4D9n3KOX4UQrm8ScFR0+cyhDe6Db0qEA5Kyp3IIqiDocjJibm+eefP3ny5IYNG15++eWJiYns7Oy1a9d++OGHPj4+Z8+fe+PN1RcvX7I57AaTMTg05Lmlz9fW1wnFou7enhdXLPc+eABn9o9//FhUVFJRUTU0NNLa2r5s2fKPPvrk+HH/d999/+rV+JGRMZwZgUDi8QQUCo1AIBkMpqamlkOHjrzxxptxcdekUnliYvLnn3/5zjvvUan06OhTK1asbGxs9vcPfOYZ7J44duz4N998d/Dg4bKyip6evpdeWrV8+UsbN24OD4/o6urBmblbb3Oxmg5/5MymM57xjz/aDGCUgXwIhsu1VVfH40/2RAW3hga3hp4dPZ8jyBuEYTZw1KA2Y1P03W1DEMRms0VGRq5YsaKoqMjLy2vFihUkEiknJ2fNmjWrVq16/fXX3/vg/TfeXJ2SlupEXHqjITA46Lmlz9c11OPMlr+0wvvggeLSkmeee3blype3bt2+b593ZubNioqqpUuXbd26PSUlbdWqV06fPkskjq9YsdLLa//4ONloNOOtYKcTaWpqOXjw8GuvvXH1arxMpkhKSvnii6/effd9N7OmppaAgKA//OH/rF//9V//+tpzzy2Ni7tGpdJpNMYHH3z4b//2fz/zzHMZGTc4HJ6b2VOqG+cQNc7MNlVJKrDuCTEb4dKdLJqDSXMwmQhHCGIFTGoxkxJrIM+Rze1gl8tlMplCQ0NXrFgxPDwcGhq6fPlyAoGQlZX16aefvvDCC8uXL39p1cr/53//r5jYU07EpTPoA4ODZtSNXvv3FRYXPfPcs6+/vvrgwcMhIWE3btzKysp54YUXg4JCurp6XnppVVRUDJlMffnlv+7b500kjpvNVnc91tzceuDAoZdf/uvly1flcmV8fMLatZ+/8857FArt5MmoF154sbGxOSAg6Pe//68vv1y/atUrv//9f/n7B/b29guFYn//wJUrX166dFl9faNarXUze0p1492F/YiOOp1OrVYbGBj4u9/9LjAwcO3atUuXLq2pqUlISPjyyy/fe++9/fv3R0RE/OEPfwgLCzObzXq9Pjg4eOnSpQ0NDVKptK+vb9myZfv27SssLHz22Wc3bdpSXV3b2tpeV9dw9Wr8c88t/eyzdT4+x373uz9ERESOj5NfeeXVffu8+/sH+/sHi4tLb93KnpzUNDe3ensfXLXqlcuXryoUqvj4hPXrv/7kkzU0GiMyMnr58peam1sDAoKeeea5sLATBw4c+vTTz7755rvCwmKVSp2ZeXPNmrUvvrhicHDYZnO47wPccy8hPc66ER8GogODGrRKUCtAdX9OoQDMKUGlBrVhqi/ReeewHLvdLhQKjx079m//9m8vv/zyM88888ILL8TFxZ08efLbqS0/P39iYmLFihVBQUEajUav14eEhMzFLCzsBN4xMTAwFB4esWzZ8r/85dlly5b/y7/8a1BQSF/fwMqVL+/cubuiourChUvff//DunVfMBisGcwSE5O///6HtWs/HxkZCws7sWrVK+3tnYGBwS++uKKoqCQ/v/D4cf833ngzPj5Brzc2N7du3Lh5xYqVZPLsLy7uiu1xMrOCTQNaNnDHgDgMo/0weN9uoB8GhmGYgBI5wNWB1nrnE85gMLS3t//0008rVqw4c+bM3r1733rrLR8fn3379n09tWG2/vi4m5lGowkKCroLM6vVjiBQX9+4f/+BNWvWHjlyNDb2zJ///MzevfuysnKWLl22Zs3asLATP/646ZNP1mzdup3D4XkyU6nUN27c2rDhm1WrXsnMvLlr156XX/4rDu+555YWFBTl5uYfO3Z8ATBTg5ZgJ+WJCs4SLkSRT52gRd6fO3mChrmo8ZhTg6fLZBUc4BrA4HnrqVSqmzdvHjx4cOfOnd3d3ZmZmTt37tw+te2Y2kpLSykUyttvvx0WFiaTybRabVRU1D8Nk+bmZqlUOjAw8Oabb/r4+BQXF7/00ksREZEmk8XlQouKSrZv3xkaGl5eXtnR0fXVVxv27t134cKlTZu2fPnl+rVrP3/33fcPHTpSXl6p0eg6O7sDAoI++ODD5ORUk8kyOkrw9fVbsWLlpk1b1q//etOmLQwG68yZc6+/vrqkpKy0tDw8POLNN99269muXXveffd9Go3heV3353+ceqZFdP3igZSutIC8oOMF/j7Fx+7bHfUpPupb4Hs081jWcDbPzjV6MENRVKVSpaenX7hw4ebNmyqVikgkJicnHzt2LCAgIDY29vTp052dnRwOx8vLKzExUSqVGgyGzMzM3bt3Dw4OKpVKMpm8d+/ey5cvNzU1/fDDD0lJKbhBWFlZ7e8fWFfXIBSKZTLFhQuXoqJirl1LvHHjlp9fwJo1azds+KagoAiXLJE4npyciiNEELDbnXl5Bd9++/3HH3+6a9ee5ORUmUyRk5P3009ebW0dnZ3d6emZmzdvzcnJMxrNfX0D0dGn9u8/wOcL74+TZ6zHycwOdi2iE1rFTAObZmRSTfT7cmYqzULDnInO0DOkdqkRDA4PSxJFUbvdrlAopFKpSqVyOp1ms1mhUAgEAqFQKJna9Hq9xWLh8XgKhcIx9fJDpVLxeLx/WpsOhwM/JJfL9Xo9m81WKidxI1ur1QuFYrxf2GZzSCQysVgqlyuVykmBQESnM1ksjlp9e1iR2WzFwzUanbvvn8lkUyg0DoenVE46HK7JSQ2PJ9DrjXq9US5XslgclUrtcqFGo1kikfH5QpvtHhayJ6tp/+NkNn2OR/yPoiiCYG+9EARBpzbPGarwEM/fuU7vkc/tYRr4UAC8bYu/w8SNb0+7bq7c3Gnx92F4NDyTBzTl73IG/NBvhdk9L/SXEVAUdblcDofD/WbSHQfXG/dIkHu9hHSnw9i7c3O/0rz/5D9ndDffwmTmqUY/D5u623XOcgxn5sQ27AW/p2RxzfCU/izpZwvCOc148e2Z82yJHjRsATLzvEQ3PM/A+/TjdSOCbbeHW7kHaOBV4oPqGa6d7qr1UaNyX9Z/Y2ZuGbgfVy4Xarc77XYnbpK4w+9T+m727oTuUzxSzyIzmDlO9Jd2x/0zm5H2kaJyZ7bgmf1s8rmv6RF6HkhjHijyryjkAmf2K6584SZdZLbw2C0yW2S28CSw8Eq8qGeLzBaeBBZeiRf1bJHZwpPAwivxbT2TDKf8PE8qNkfZQ38zuPBEsOBKPDszJpP92OYoW3AimncFxudvbPXUMyahkclk/nPJzMczr9y8E8GCK9Dteb+lI6lT835jc0gzifWLzOYzSIwZyNsWmc1nSDPKtshshkAWwO6czKRS6eLzbH4CnOV5xiDUsVisRWbzExjA1Lq5qAy3GwPwdSxwZkKhcFHP5ie223o2ZetjzASD13FmJBJpkdn8ZYZIW8RDyRPVgZ7MhoeHF5nNS2aoBhC+mxm/OcitZwMDA4vM5jszck3Qb4qZy+XS6XRSqZzHE/B4AqlUrtMZ3FPI3ZPGkxqQc8+C/CLClJ65JM143ejJjEKhLEg9QxDEbDYrlUoWizUwMFBfX180tdXX1w8MDLBYLJlMZjAYnE7n3Qcgu0e74p5fSO7pBaAacPFckmbRYNJEdaCbGZPJXKh2o9lsJpFISUlJe/fu3bVr17Zt27ZMbdu2bdu1a9fevXsvXrzY3t6u0WhcLtddBI+jmhpljH3JcZeYT/rQFDOnuEk4kDiD2YLsI6bT6YWFhefOnQsMDPTz80tOTr5161bW9JaWlnbixImAgIDw8PCUlJSRkRG73Y5/XIPL3ZMTTgv/AGcq/EmjmfN8HszwPmLcBmEymQusTe1wOBQKxa1bt3bu3Llnz57o6OiKigqVSuWpTAaDoaOj48KFCzt27Fi/fv3Vq1e5XK7FYsGxeULCP5TCgU1/NDWnDJ/0gTmYMRiMBaZnCoXi2rVre/fu3bNnT2trK5/P12q1Mx5aLpfLYDAIhcL29vZDhw7t3bv33LlzYrHY6XQ6pjen0+kGhqvd9O+TRjPn+VANOLl43eipZwuMmUaj6e/vP3z4sL+/f05OjkwmczpnW35kSgxOp1OlUtXV1UVFRXl5eeH1Z0ZGxvXr19PT02/evFlSUtLR0cFgMHAV9Kw855TjkzwwNzOxWLxg7EYqlXrjxo3du3enp6crlUqH4x4fvOJTCVZXV3t7e+NGyrZt27Zu3bply5Zt27Z5e3tHRUVlZ2dPTEyoVCqbzYZ97TR/tt8Gs8bGxoCAgMjIyLa2NofDcU8zD6/uGAxGaWlpfHx8QUFBf38/mUweHh6ur69PTk4ODAzcuXOnt7d3QUHB/dwETxToQmeGP6KysrK8vLzy8/NZLNb9i0+v1/N4PAKBwOFw/jlRj81mMxqNUqmUSCQ2NjZev37dx8cnLCwsOztbIpE4HHdrGNz/SR9BzIXOzOFwSKXShISEXbt2DQ4O6vV6QA3gkoKDCS4hoJPYekDoJOa/SwhqxuIgIiyOnQeIClDz5KQ4Kzvz8OHDu3fvbm1tVSonH4G4H0kW98Gs4Neu5/lICjpHJm5me/bsGR8ft1qtGDBjP2grwdAFLhaAGvs1dM0Z4mRikJxMcAyBtgIUjeBgAKJy2SaVSuGtW7d2797t5+fX3Nw6RxGeePA9mfFG8xnNZx7vurkPe9VWq1WpVFIolAsXLuzZs4dCodhsNjCRrYQ46PZ2jJ0BQzeY2CCps43EQre3ZSjGyi516ehg7HESzt6Oo+8CMwdkDa7x82j3fk1PuJ6ab5skg0uJOg0TExMZGRl79uxJT8+Uy5Xzooa8BzNy+xSz2HnFzOl0mkwmqVRKoVC6urrKysqCgoJ+1jMtQdAYxs9exyndDYpyl7RVMXSNVrKfmfcdvWwfqznazK0CbZWi2Yef+yW77CdQVoCiXT2WTC07wCrYSC/1plQFG2gFmLY5sdneGSzm/gOYJdnV1aVSqXAbZ7rRdvv/Ye+6h0rnwYxUHcBpCuQPYe88GQzGlK1/B7MgYCUBMgqo9KFO9cgSabXa0dHR2NhYfL6rrVu3fvPNNz8/z6w04GdZm3YKSraBPNtKTmNU+4uaA8z94ZaRU5SyQxZiPNgqYDLD2XOQW7oDVLl2ajqjOkDYHGolnAd6PKPsgHkoFky94BS5UEQoFoWGh3l7e0dGRnZ0dMjlcnySCtfU9hRab7MxY455MOOP5DOacT17+syMRuPAwEBOTs6ZM2f8/PyioqISEhJSUlJSU1MLCgoEAgH2PLMzQFUKHfvEJT+APBUlnKGX7VN1RyDURKDFM4p3wMgJsOaALgPt8xWWbQVFGhBP00u9Fd2xwM4DYQavZDv0HgJ9NTg5KIDOoG9ubYmLiwsMDIyKisrMzOzp6dHr9Tgz9++TgzcHMyZ9Ws/mDzOj0Ugmk2NjY728vPAZxtrb2+VyuUaj0el0BoPhdtfiNDNh2RZQ3rJPJDArvI09gUCJAuopetF2++hpMBeCMtnRdYRXthNU2faJBHrFIUN3GDDOA+cCt3iLo88P9M3g4mHrf6KIzWEfGhqKi4vD+8b+OUskiUTCz+ju98JmhnkyTe97MuON5MwTPRsYGIiNjf3hhx9OnTrV19cnEokMBsPUzEfYTDq3V3bBFvm5rWcCjEeBkX6LXeMzWbcDWv5ha/ei5G0yEK6AtRyU1x1dRzjle0FVaqbms2uOKuv2QPd2GDzEyv/e3B8Ohg5wCVHA1sx2oYjJZBKJRL29vadOnfrhhx8iIyN7enpmPNXu2ZZ/NI+HBcHMbrdLpdIbN254eXmdOnWqpaUF7/+dXQTTzLhle2CyHJG36gdjtBVfQ/GrpuqvVS0+CLcA7A2gz0X7fFllB2GyDpX1mobPqSu/hfLXHPUb1PW7gZoE1hFAZG5meHeXWq3u6uq6evXqnj17kpKSWCyWxWJ5QqjcVzs3M4lIvETSf07UHsCu2kEp2cZrOPK0bBC9Xt/e3h4REbFnz56+vj6tdvZFPm9flFMC2h7L6BV26xnQd4FlHCQVsvYQZc0OeVugk50L+n5ARsDV7aQksVrPga4P7EyQ1ynbQyerNyubfKyka6BsBoQDKLa8HgIuBHGiqAtFXU6n3W63Mhi0ffv2+vn5lZaWqlSqJ1Ql3gczuZi1ZCxtdc+Fv4xc/cvEjfeFtbueFjOZTHbu3DlfX98zZ84IBIK79Nlj14UawCkB4wToxsHFBpQHDgoYBkDXCYZ+sFEA4QNwAGWCZQT0BHByAZGBgw76XlA3gKYLTASwcwBVYiv6gQMF+7RzIKjdhdjkCnFycmJwcHBsbKxIJJo/zFTi8SWMS/9j8MSS8dNLGGkvSGo2Pi1mAoHgyJEjJ06caGho0Ol07hvO04MgiNVq9ezRR1GL0yZDrAKHXYKAwQUOB5is9kmnSzMFQ+u0yUx6vknPR6wygEmwy8EocuiF4NIhFo1JJzPqZA6rDsCKOdSOoDYEtaHgMBg1nZ3t0dHRR44c4XK5uMX45GrIOepGDottlBHmBTOn08lgMHbs2HHlyhWxWGy32z1RubUKVQ2bBJ12aR/oiFi3oY0OukG7sM7GLbWJ6sAwBlYGGMcsokZQtYC5F4zdqLhaS8nRkbNAXA76dphsdfKrjcxK0A06ZT2T9HoFtdalGAREAogWQW0uxOpCrAhqtzvMIpHg8uXL27dvp1AodrsdN0buKNjj25mDGZfNsUh75wUzrVbb09OzZcuW9PR0fPjGHdKYfnrRyo5RSnyopUfFzSdAXQ7iPOPAKU6lN6tkB7vGx0iKNzGyjKR4do2PvsMXJk4hIyeUjQfZhT9yCn/QNv7kGgkFUqyqPZhZdcRCuKwduMRuCCeV+lkmUsE1AYgMrxVdiA3zuBxWqzktLW3z5s3/fOWtUqnmA7MJ0rh4LHdeMJucnGxvb9+8efONGzfuoIXvWGnAzrTWbxdlfw6d+w1Vm+QFG4AZCcO+hqpvoW0L2vidoe5HdaMXSowFeqSq+HO0Zi30bkJr1mKeps+h8ROoeg+p+xToR6Fzl7jwS6TvMAwGmjoOM3K/g+EwcHYDKkBRzBLBjREEcTqd9oyMjE2bNjU3NysUiifXoMYe2D+PLXD3XWH9IDS6jpq7ZDT1ja5zfxq+8uenaIPMoWcI1nACBEwkK+G8rmq9uvwrkJ+DwaPS/C+AcNzRvE1e+AUwQ4EZig74cMu2uIixoIzXVa2H+nXQ+6Oh6D1o3QCM/cDyguZP9aV/A3kUEI+KS79zDRwHarOADkIAABOISURBVCyQo1lFW5GRk+Dqw9YWnrIb8V9cz65fT926dXN3d6darcJZznJLPY6gKWYOCTZWzpMZl8u1SVqXsNsiKZX7KcUbn6KtP8fzDAFsZQsHmIfthBhLw+eW+g2gOAODR2V562DsmLN5i7R4PfBiQXARGQ1hl+1yjMWA4qq6/Au04TMY3KgrehuaPweaF/COQNc3hqrPQHkaiAHC8h9dI8HAvgzMS9wKLxfxDLiGABV7MnM4bAqF7Nq1uJ07tzMYNKfT/tSZMQh1TCZTJxlcQiM00XrSyXWRU/36T62/EV9mJCIiwsNuRDBgGLMBOzHCVPehruJj4IRAx345xszH1bSZX/AljIbCxFlDXxiteJd9NBrkV1QV66BpHYxs0RW97ar7FIY2wtBmZ/06Q/UXoDoPxGBB+Rbn6EngJAA7nlN1xEW6BC53t/ht5TYYdN3dnadORfv4HBYIeG6cj0OpZsnzTj1zfxfDYDCUYvISLrWTP5r71Puu5HL55cuX/f39z5w5w+Pxpgz66brRQrHTUtT123mF38Kgn77Zi1++C2gX9X1R9LJ9kmZfZZufuDWYWhOgJ6eDPItfudPUtgNIvpqGTer6jfqWHcrajfLqjfp2b9BmIhPnGNWHTWOXgJcFnJvkmhDjRBogVADl7aoYEJfLIZGIEhOvBQcHnjkTK5WK3Ydmke/jCJqbmVzMmC/MjEZjb29vdHT0rl27WlpaFArFbVGgAE45GIeto3Hk4gMTJbs5dfsnh8+CtsklbVeMpVKr/ahFO2m1gTp6gVM1hErrxqsCpO3+wLwCgiTdYAStwotZc8g4egrkOWBtsNAyaY0xk8RMB6/Cwq0YrT2jIhdgrXJQu8EYDLqRkaH9+73Cw0MbGup0Oo370OMANEueczOTiHnzhZl7jPDevXvxGlKr1TsdU7Jy2sAhB8mgaaJAS0q0suKdyjpwsm02nU01bKLedBFjzfSboB1z2dSIka6iV9i5hVh/h6kdJBVa6k0jMwfktWDvB4QIqi4dp9Yh7wHNGKoZVTAbbYohADmAEaY0zGDQdXS0nT172tt7X2ZmukDAs9ut84cZ9s5zntSN+L2G9+tv3LgxNja2t7eXzxfqNEbUZACbCqxCsDHAMQ7OQXAywClHXFZwycBJA2cf1nflEIPLiI37cPGxQBd96peK1Xsu+pRjYsNGEA64eNiAH5cYEDGgYnBJwKF02Ca1WrVIJBgZGTp79vTGjT+cPXt6cLDfgxZeV8+iFY8+aG49m3fMjEYjlUq9evXq4cOH9+zZExMTU1FWyaaRDQqhQyN0aLgOLcuhZVh1fJNOptdpzHqp08AHExM1ixwWpcVqsFvUDpPUaRK4zELcIVYBasGcy8KfChE5LSKnWWK3YM5mkZmNYqWSS6MTq6srz58/6+X1k7f3vrNnT1MoEyaTYZHZve9Is9k8NjaWm5sbHR0dFBQUEX7i3NnTCdfikpMSMJeYlJyY4nZJSUnJycmpqalpU9v169fT0tJSbm9JKSlJqanJadeT0q4nXU9Lup6WiLu064m4S01PTE1PTEq5Fnft8plzp0JDg/38fKOiTmZl3Rwc7J8N2JMaa7yA9MyNVKFQ9Pf3p6SkBAUE7tq5fcf2rbfdtu07tu3E3fatO/Dh3NumNnxptO3bt+MDvDdv3bRl2+at27ds3b5p2x1u49btm3C3ecemzTs2bdm5deuubTt37zhy9PC5C2e7e7vkcukv1GvaiHUX8bF6FiIzh8NhNBqVSqVYKOKwmRPjRCJhFHNjBOIYye0Is21jU9soYWSUMDJGHMUdvov/DhNHhokjQ7fd2Bh5nEynMXksvpAnlUsMJr3DYVtk9ivuSRRQxGmzmq0WE+bMNqvZMfVrs5ptlqnNPNtmspjncgaLWW81661W3BltTovL5cQWXgAUEBTvMJvz91dcy/0nXYh69vPVYV/MTtdLqGuGSN2DNX6OP+3DF172/HUBuJ1zqlvM89c1tSb6IrNp+f2af09mmA7coQZ3YYZ1jt/p3MBcswFbZPZrKN2Z1lPwv2Dm1sCZfKa/Z8eWvpp2nlr1Cz+KYFnMm23B142e2O7fPyV/jBlgPBBAnXd1i8we3Q17/5BmxPwFs7tgw6E+ukL/6pwWtp65q7ZpQ2SWatCT1nQ09xw77meeW+Hm8vxqST+6DJ46M4fDJZcrRSKJSCTh84VK5aTRaFYqJ7Vavc3muMdgagR744+6EKfdZTXbTAaz3erAsakUkwwaU8ATigRiIV/E5wq0ap37CbfI7FfdQXK58sqVuJCQsICAoAMHDqWlpff09KWlpdfU1HG5/Hss3zylZ6gL0UxqmXRWf++AgCfEmV1PTf/73z46sP/g8WN+PoeP/rR7b3lpBeq63TRYZPbwzHQ6A5lMvXHj1s2bWSUlZbm5+fn5hVlZOdHRp3Jz8ycmKDyeoKenr6KiikZj6HQGh8OFTzVmNJp7e/s5LK5Rb+rq6K6qqC4rKa+pqmUx2LgynT51ZtnSF+OuxBcVFKckpW7euCU9LWNSqeZx+H09/U1NLVKp3Gq16/X6vr6+lpaWvoF+g8mo1evoTEZ9Y8PA0KBQLFJOqngCPoPFtNisCoWCSqWKRCISidTV1cXj8Wg0Wnd3d01NDf69hUajIRAI9fX1VCpVo9GYTKaRkZHGxsaWlhZ84fOHF9OMlE+3bmSxOM3NrX19A2Lx7W/aSKSJ9PTMyMjonJy8wcHh2tr6S5euBAWFFBQUMZlsk8kyODjM5fIlEllERGTWzeyxEcLVy3GxMafjrsSXlZTjzFAXnIqOXbliVW11HZVMa2/tOObje+tGFovBrqqovno5LiYmtqamjkymksnk8+fPx8TE3My6pZxUkamU7Nyc6FMx1xITqmqqx4iE+saGopJitVYzOjqalZXV0dFRWFiYkJDQ1NRUVFR06dKlkydPlpeXczicvr6+9PT0yMjIzMzMoaEhBoNx/vz5kJCQy5cvM5lMi8UyQ/IPv/t0mXV19SQkJA0Pj05OavBrMJutDAbr0qUrN29m1dbWHz/uf+tWNoFAOnv2fFNTi1arr6mpGx8nM5nsL7746qMPPz5yyKe2uq6xvqm0uMytZ4gTjY6M+V//83+/8drqt99856MPPw4KCG5raeeyeSdPRN7IuNnU1PLVVxu8vQ8mJyeHhYWVlJTIFHKLzZqbn+d98ED/4EBKWupPXnvLKsoTkhIjo6PEUkltbW1QUFBWVlZnZ+fQ0FBOTk5SUlJmZiaVSmWxWC0tLV5eXgkJCR0dHXv27AkODk5KSvr222/j4+NFIhE+KdDDQ5qR8ukyIxBIubn5LS1tfL4QL5hbz9LS0ouKSg4ePFxSUiaVys+ePV9f36jTGerqGiYmKHQ6829/+/tf/vTMus8+HxoYZtCY3Z09DXWNuJ7hzP74f/7kfzzA/3jA7p17jvn4VlVUU8m0Yz6+ideSmptbt2/fefJkVE1Nza1bt4qLi5tbW7p7e6JPxWzfuYPFYadnZnz7/Xc3bt28fPVKTOwpiUxaUVFx+PDh69ev9/f3U6nUhKmtpqZGq9XKZLKampr169fHxsb29PQEBQVduXKlrKwsJibm1q1bfX19tbW1dDp9huQffvfpMpNK5b29/Tdu3GppaRMIRFwu/+bNrP37DwQGBqekpBUWFh87djw7O3d8nHz69NnGxmaNRldSUtbZ2d3b2//RR5+8tHzld99839XRTRgltrW0ezI7FR37+qtvUMk0HodfUlR6YP/BzPQbo8NjRw75REZEZWXlnDwZVVJSRqfTa2trr169GnYiPDk1xS/Af8/en4ZGhhOTkzZv3ZKTlxufcC0qJpo0MZ6bm+vj44Mzo9PpGRkZKSkpJSUltKntn1Q2bdoUHBxcWFh44cKFyspKMplcVlaWlpZ2+fLlCxcu9PT0PDykGSmfLjOHw8Vkso8f9/fy2n/kyNFt23YkJiZ3d/eePXs+L6+gubn1p5+89u3zDg0N37Nnb2lpOZ8v9PY+6O19MDg4dN26L0KDw4oKin2PHt+1Y/eRQz6lxWX/rP2mvvGDSxcuf/LRpwwa02510KmMYz6+mek3xkYIPoePeu87EBAQtGvXnoSEpNra2u3bt3///fe+fsebWpqTU1P2ee8POxF+6Mjho77HKDRqQlLimrWfhYSFhoaGBgYGZmRkDA4OqlQquVyelJT05ZdfHjhwIC0tra6uLiYmJiQkxNfXd926dVeuXOnr69u5c+f27dvDw8NTU1OJROIMyT/8LqoDJ9c9JvX2WLmxhtvfwD+B8SBarb6qqiY/vzA/vzAj48bAwJBare3rGyCTqTyeoLy8sri4tLKyuri4lEymajS64uLSgoKiqqqanJy8/t4BPldQVlKedTO7pKiUMkF1N8IG+gazb+WoVRpAQa81NNY3EUaJMom8vrahsryqtrqutLisv3eASqVnZeXcupVdX98oEIiIxPGamrqamrqKiqqmpha93jg0NHL9ekZlZXV9fWNLS9vYGFEsllqtdgSBoaGR1NTreXkFvb39TCa7v3+wpaWtsrL6+vWM7u5egUCUm5uP33ljY0SFQvXwkGaknJMZSyyWzq8xPDNKju169nE8nH+WTOd90CKzeY/oFwVcZPYLkcz7gEVm8x7RLwq4yOwXIpn3AfdkJhjLe+rfWMwpxYezOzxTzZn1PD4wxWzmfMSYrX/bbmwXjOUxW04/3W+Z5pSfp/Qfzj9n1vP4gAcz9zeDDDczPrVVSMhfZDa/ACJYmxrXM1J1ALs5kDd0fZHZ/GI0szRTzFyi29/mzmQmoHYICIW01vOjFcH0xhBgJc6HuQB/voaHqw89U/2c18LxYf2NbJe4TjQQR6r2Y7X6C0avT611PLWmuIDRxR8vJ7fHD1WGURtCEWYSoASApzx/48/S9ZT+w/l/zmvh+LCpk7HJXyVD8cRqX3a7n3T8BpfWyuXyZTLFEiGzlz9RPd6ePFB5klx/AmGmYMxQ+Xy5vofj5JlqvlzJA5VDjTGT1kmGrxKrj3A6jsvJN3j0Nh5PMMWMNciZaCB0ZvZVnCTXBQLjIiDYR/wPdIbHGNlT+g/nf4yFe3xZKwGlgqRIOHBhrMqX3RYhnSjg0Tp4PJ5cLl/CY48yyW0jnbm95RHE8sNAPgkINsHJ4yvOg+X8cJw8Uz3Y+eZJbCkAwcZPoTWHD5cFslsuSMfLedQeHp8lV4iXCHgTTEoXcaCa0HSBXH4AGfIBdRk2rfk82Tyl/3D+eXIhD1QMVAjOHj39LLHGb6I2Rth+Q0ZqlLBHJVKBWqNYIhIxmPRBKqmN0XedWn1U37YHoceBqRubwx602HIDT3d7OE6eqZ5u+R/s7Lap6fCU4CCAskA97E+s9mV2JfCHqgTkbrmQOqmWG4yaJSIxl8OZYNCGuCM57OZAafVGWdtREOeDpX9qBoa7zn35YAV6qNie0n84/0Od9ikl0gMqAoQM+nppV6CwfiuzOVg8lsul9PGZY1IRe3JSaTDolihUUqGIw2JN8Ikl8v5Tk43bRXW7Nf2hDlqiS1qPGNie8yU+hSt5OE6eqZ5CoR/2lE4pKDtd7FvG0VPiut2q2h/EnScFpFImi8oXsMVi4eTkpNFoXKIzqKUKIYdL5VGaZOO58r4z7KbQiaqj7MYg8WCcgVNhUwyAjuDhSKB7Ik5LgkfonkyZ7+ssbmGOge5Op2xXEjNYzZGE8uOsxlBxZxR/MIMz0cTlMaUyoUwmUavVJpNpic6glcpFQglXxCfxKC08YjlvKIPaHEOrOU6uPkavC2Q2hLCbwhbdI5EAqzHktmsKYjUFMRsDPR2tIWi82m+iOpjcdIY3eFNArBJQO8SCcbGEL5OLNJpJnU6HMdMbDZMahUwhFoi4DBadTqfzyG28wTRx50lRy1F+9Q5x5Q+L7hFIoOp78f/f3rnsNg1EYTgviFTBlqdgR9OyQ4hnQEgsUC9cSgMCoSSVIkQphTat3Nx8G4/H9vg+Hl/GHttpCm5YIJZkG+nTWc7i+6Wzm/+8v2d07hqdDaOzYR1umId3/kH7cF/vPYCDx+rJC1kYSCKAEJomcj0rJC6lhDFWlmUry1nKmthMbGg6AAAYypk5/uQKO87wmTZ4qh09Av1t0N9We1tKt632ttasYKCt9tpKdxP02qD3cInW3/zD4IkzfO4I+2jU1cRzCBHGuFmJxE0SmiSUc75YLFq8KlmRxSkNiO95HsYY67IFhlj6ak76SPgMLzrq2YF0+npyvHv15eXkeHf6bW/N/xs42Zl93xVP96Qf+/LPV+r5GzB8q10cwMt3uvDRGB2h6bEuDpEmWZbteV4Y+pSSLEsYY5zzuq5b1by+jS1PspRSSoLIc3zbckxk6RrSVKjKQBaV2UQcCWPh8mokjMdXkzWrGJiMptPxbDYRpZksi4oiqaoMgKJpKoRAR9AwkeVgN/BCSqI0TvKM8bwoC143PcnXrfniuprXZV3lvGCMpXEWRwkJosALPcd3sItN20QWgoauIQj0Nasb0DWEoGHopoksy8DYtG3LcbDrYNe1Pd8NQp9EIU3jLM9YwfKKl3VZzav69m7DTWt5KqWJrSw5b4pSWJqncZbQNI4SSuIopKFPfDdYRrh8ej1XMeDanuf4vhsEzeYjJIhIU2pHKYkpieMoSWiaJaxgvCz4X4HNF/Ob358ifwExykM3TYYxGwAAAABJRU5ErkJggg==;" vertex="1" parent="1">
          <mxGeometry x="500" y="180" width="145" height="392" as="geometry" />
        </mxCell>
        <mxCell id="sLUFw-evy7mvADKt9X_3-10" value="" style="rounded=1;whiteSpace=wrap;html=1;strokeColor=#d6b656;strokeWidth=3;fillColor=none;" vertex="1" parent="1">
          <mxGeometry x="740" y="330" width="130" height="179" as="geometry" />
        </mxCell>
        <mxCell id="sLUFw-evy7mvADKt9X_3-12" value="" style="rounded=1;whiteSpace=wrap;html=1;strokeColor=#d6b656;strokeWidth=3;fillColor=none;" vertex="1" parent="1">
          <mxGeometry x="899.84" y="330" width="130" height="179" as="geometry" />
        </mxCell>
        <mxCell id="sLUFw-evy7mvADKt9X_3-13" value="" style="shape=image;verticalLabelPosition=bottom;labelBackgroundColor=default;verticalAlign=top;aspect=fixed;imageAspect=0;image=data:image/png,iVBORw0KGgoAAAANSUhEUgAAAMQAAABTCAIAAABPpz/HAAANR0lEQVR4Ae2c+VcUxxaA8xcM8anxNRLQBBWNSdQeluEFEbIYMSa4oLggagSjiIII4gIGFVcQlxA3MBo3FI1xwS2iJuCK5EVFoyiyiewoj8wAwlhPT+XU6VRV97RMM4unOPPDrepbt27d+eZWdXU1b6g4nn1YBBSJwBuKWGFGWARUHM9gYolZsQgwmBQLJUtODCYGk2IRYDApFkqWmRhMDCbFIsBgUiyULDMxmBhMikWAwaRYKFlmYjAxmBSLAINJsVCyzMRgYjApFgEGk2KhZJmJwcRgUiwCDCbFQskyE4OJwaRYBCwOJl//kBUJW7DPyPGh7Hdv+RGwOJg2bNoFiL8t2/dbfiiZhwwmxZI8g8mCYOpk76bieJaZrBdKS4Gps4Nmc2oag8l6SbKgM+BpBzOyLuUymBhMxi47QiOWAgAYTFZNkkVkJo23/7NnLQwmayfJ/DC93WtQSeljuBXAMpO182TOBbiNrTrzwmW0qcRgYjC1fcG0au02RBKb5qydJHNOc77+Ic+fP2cwvQYMoSGYZ5p7z/mLp/X/E5LEMhP6SqxXMANMnR00eXfyMZIYTNbLEPLcDDClHcwgSWIwoa/EegVTwzQrMp5KEgAgYX0q2wG3XpJMvQAfOHgC3J8kebqQdfXNrs4MJgaTrN2Bbn28y8orSYwAAI/KKux6ecI4slMD1suTiaa5N7s6Z128TiVJ19jk5jUaRZDBhEJhdYKJYOrac6DPyGC/gNnTZsVGxyYmJe/Mvpzb2NQMABj/daQwagwmYTSsSzYRTNSgdLBz5j8agV1qJ5h69htMfuydvLDe5RQ72rsO/urrgKCoWZHxMUvXSzf5wO3LsZPmzIqMX7IyOWLBqoCgKPePx0o3acNVG1v1oCEB4yZHhITHLVqyzqn/EAkjDr29fP1DZoTFLY7fOH9x4pTpCwZ/9XVHe1eJJjIvGQuTm9do6uRFrdRqdUXFZVdybmxK2ecfGM45epBeUmHalLIPagYERZGW9x86QdrBasorqsmGCKajGZnk1RHj/vEWQ5fu7lNDFh3NyNRqdUi5+dkzrCNYfKfvJ4kbtt+7X4g0hUJFZU3KjvQPNV9R28LK+YsThU2gvGbdyxte9Hmzq/PYSXPSDmbU1j0VKg8aEoB0kNDJ3i06NvHq9RvYgwfYsKFB+/Oxs0NHTUP6bRBMCpNwwFD++djZL0dPF/ptFpiOnTxP+oZeibHt4bE4fmN1TR2p09LSKnRexfEd7V2Xrd6k0zWSylhNa6v+h12H0J0HZmdhXBKmj3ZPVBzfwc55Rljcw8JSUgcA4D00ELMWOC269FE5VRmrPJN5sZ/GF2sus2hmmOBICgpLQucugx5TYYInelUcb+LMZGOrnheT8ORpPRZxVMQyE+focenqf9FVOUL+gyKnAZRZSSIzjRgXis7tULsQZiYbW3Xy1j1UNbHK+voGnxFBMgESqlkETHBUV3Ju9OZ9zALTkeOUaS46NvFKzg2xiMP6puZmFE17J6/bfz6Q1qderayq7e8+HNmBQnQsZZpL2ZG+L53+/EBo2fPzv6c5G1v1T0fOCC/JlFtaWsdMDMdcMli0IJgAADW1T37NukYO+Ptte+FI2ikzUac50g2yBk1zHeycL1/7g1SQWZP/oAib76jTnExraJpLSt4pswmphm3ZGCRJgR1wjfcY0g/Fa9BLmBYL0/fb9ho56tNns4VfmPEwjZ8y10iXSh+V//vdj4ReScvGZqbXAybq3ZzEN9Haqr945ff0w6eSvtuh4ni1x0gJ5bon9WcyL67//sejJ85Jr3WGj52Jvi3qmkmiFwDArdv3jhzP3Jya5tR/yFvdNGWP6c8bAAA6XWP25dzkrXv2Hjiedyefen8H+1qdlIJcMigYC5PBDjCFfhrfKdMXbPvhAHY3Kx2mdl+Anzgn7QC6mncnPzg0BpuSMk7/ihSEwsPC0mF+/7hXVXG8i6ff1ev0pVjenXwUrgXfrhWakpCra+qiYxOxVXzM0vXUJjpdY0h43L/edkEdqTi+x4ef7dl/jKrf1Nzs+MGnQmUJWWGYIheuFvuER6/A/Bg7aU5RcRl1DFilWfaZMB+ePK2fERZnY6vGRvHu+59imrD4uKKqN++DKcMi5+hBPdEFAPD4bDzUkZOZ9Hp94obt1JmIumug1+tJuJGHYkeDohatQTrSgpIwjZkYTg0rAODoiXNifshZbbR3ZjK4AL91+957zl9QhzA7in6oxstnIlUfVvZ1GaZrbCLDtWrtNqhgcM1UW/f0c9+p1C5cB/mRlgEA8xcnUvVhZUd717w798mGv2XnSLQSXlIMpr4uw6jbegCAgsIStNcs7BvJIeFxer2eHAaqae8FuPSa6bfsnM4OGuQtJqQfPoX8RMKOPYcxNbK4bPUmpI+Ey9f+gJrSmam8oloMbhXHz5m/EhlEwp/3Csi0ink1dNQ0pI+E1lY9piZWVAwm6i09dGjIcMM7YNTxo/G0N0wSmen2nw9se1Ae+6CAZl3KRX4iAdvWR8pCwXngKKSPhLLySqgjkZkaGrTkM02h5ZWJW5FBJKxI2CLUoco2tuqa2ieoCRKoymSlMjBJTFURC1aRvVJrdqcdRd5jQnuvmcRg0uv10l+biuPv5j/EvAUA9HUZRh0jVtnU/PLchPDv+fPncHUsAdPsqHjMDlZM2ZEutAnloJkxmBq1eCHrKtmWqklWKgDTzDlLyO5hzfYfD5FditXY9fKsr2+gmkKZacLUSFLB+Ae9YjDJsUxdSg/4D76jTR01ddkkDVNRcVkHu5dHUiU+W7fvJ6MUEh4n0QRdOnTkNNkWXZUWjIXJy2ci2TesuZJzQ7pv8uqSlclUaygz+YwMJhVO/ZJFmsJq2nBqAAAgPLWHGUTFs+cvkS7JeRbRm/chG1bX1EHLYmumsHnLUddiQtwKShiTkneK6QvrzQZTl+7u1PU/AKChQes8cJTQSzmy04AhZHwBACgz8R+NIBXKK6oNGpeGiZqZ5JhVcfyutCOkS/vSMwy6RN0Kupl3DzYUm+Z69hts0PL0sG9JlwoKSwymNBXHmw2mAz+dJJ2GNYHTog2OmapAXYIgmDo7aJqfPSM7HT9lLtUaqpSGiXo3h/YjkBGqMG1WLOkPAOCTLyZT9WFlH/XQv/7Skg03bt4NFaiZ6catuxI20aW+LsNIywCAhXFJSEdMMA9Mi+M3Uj0GALzSHjw2qr0HjpNmEUwqjj99NptUqKyqfd+Vvubt0t1dxfHSMFEz01x5tw72Tl7UfY3HFVViWYRz9Lh1+x45CgDAZ19OgQGhZqZDR05j4RIr3syj2JfYtOQcPSYGzzNPZvILmE2NBQDg+KkLYiOUU786KYW0LIRJbJOwuqbOL2C2sAvO0SNhfSo8KdUGmCZM/cfhdKFlTKaeYHlxvP1+QbHPyGBMWeM95tr1m+QYAQB38x+irSAqTMlb92DWxIpRi9ZQu9BqdUEzY4TznY2t2j8wvPRRObzbMHVm6qMeWllVS/W1sOhRtz7eYiOUUx82bzlpWTjjdHbQSDwurayqPXby/IZNu7Iv58IJMTRiadsyEzppadDt/u7DqckJDqSm9smZzIvrknceO3n+UVkFOTpUI/wxUGGC76ka9EfF8Z3s3YpLRB9VabW6rEu5Gzfv3nvgOAqmeWA6/xtlKwJGhPwhyhm5UAf+S0IUXygIM9OLrR3/QNHnNlhDAIAJYBJ7d5R0RqLml3MXhXEwEiYVx4+bHCHRHXnJDDB9t0X0DGjkwtXCcLRNlgOTiuNTdx4kw0GtafM0Jz8zwUPZr3pgV+htUXFZ154DhREzHqYX1tZu/EHYi7RsaphevB8j5tCO3T8JY9FmWSZMnezdfv/jtpgzwnrTZCYVxzv09rpzt0DYtUy5qrqW3ORUBCYbW/Xho7/IdMOkMHl+HiC2Mrh2/Wab6cEayoRJxfFdurtTb+mx2JkmM8FR2PXypD6qw1wSFu8XFFNfc1MEJhXH29iqqU9XhD5A2XQwdXbQiN3NarU610F+GBNtLsqHCXYROneZ9Dk7k2Um6E9He9flCVvkvOrU0tK6OTUNm91Q3JSCCRoMmhlDvZ8VImU6mNIOZlRV11I/k7+Zj0JgvPCqMKk43raHx5p1qQWFJcLQQFnX2DR20hx4N0c6jw7GUPeZXmnNhA38nb6fJCXvFLufelxRtWX7fumHwcrCpOL4t7ppFsYl5eTeoh7SLSl9PCPs5cM7U28NYIGznKKLp9+EqZERC1Z9u/y74NAY76GBirz1bMwAnQeOGjc5YnbU36+HT5gaqfH2N8ag8W27v/exr39ISPjL18PnxSRMDJ6nlEvGPug1fmzMwmsTAQaT1FmO1+ZrNs1AGEwMJsUiwGBSLJSm+fVbci8MJgaTYhFgMCkWSkvOGabxjcHEYFIsAgwmxUJpml+/JffCYGIwKRYBBpNiobTknGEa3xhMDCbFIsBgUiyUpvn1W3IvDCYGk2IRYDApFkpLzhmm8Y3BxGBSLAIMJsVCaZpfvyX3wmBiMCkWAQaTYqG05JxhGt/+Dy5olu09twyeAAAAAElFTkSuQmCC;" vertex="1" parent="1">
          <mxGeometry x="769.58" y="340" width="70.84" height="30" as="geometry" />
        </mxCell>
        <mxCell id="sLUFw-evy7mvADKt9X_3-16" value="" style="shape=image;verticalLabelPosition=bottom;labelBackgroundColor=default;verticalAlign=top;aspect=fixed;imageAspect=0;image=data:image/png,iVBORw0KGgoAAAANSUhEUgAAAO4AAABPCAIAAABjzG4+AAAXwElEQVR4Ae1diXsUVba/ZOmks3TSnc7SSS/Zk04n6WzdSYoAiYhhC2BDjKyJiJAYlLA3e4KAhjUiIQtEGE371PGpjDI66jhu4+740KeOCAguPHnf92bs/+BROfH27XurO9VZgLSVj4/vVtWtW6fO/dW5556tkdPBSf8kDvgBB5AfvIP0ChIHnA5OgrK0KPkJByQo+8lESoJZgrIEZT/hgARlP5lISSpLUJag7CcckKDsJxMpSWUJyhKU/YQDEpT9ZCIlqSxBWYKyn3BAgrKfTKQklSUoS1D2Ew5IUPaTiZSksgRlCcp+wgEJyn4ykZJUlqAsQdlPOCBB2U8mUpLKEpQlKPsJByQo+8lESlJZgrIEZT/hgARlP5lISSpLUJagfIM4cL7TMqbf242Dcn1V/PuPFIzpy0iD38ocWDw5bvXMxLGjcHSg/NquPLtNd9+0hFpOPc2srDAqKoyK6YXK1TMTn1iT9eOJUqeDm1WsipQHfrT/lkDzu3vNnx4sHDu2SiOTHLjSa100KQ4N/O2o1ZOXRrE9Iih/erBw3RytPjYEqPTyv04doowIQgglx4V+81jJKL6AT0P9cqqsllNjOhVhgXabzqcRfledL/dYz243Cf4Tz4czW0xqRTDmuSxowvsPj4k4GyaUX9mZW2OJwfT51IiLCv7sJknEe29PYEl9fHWm+In5XfX840Yjyy44I1Ieda5MZ0fYPjaC2Wcof9tZMikniqWPOhMWEqhThxSmRljSI3XqELksgOygjw3557Gxlc3HVqaffoDGaGp8KEkGtBdNivM/gHYsT3OszR7he31+uMhu0zVN17BMEwnlnXfpEUJyWUCeIRwPMkYroW9Qfm1XXlyUa7HAxOGGURu2o1b/ZUcxy8SP9heQ2ohOHfJfh4vYbqNypr4qHiFUY4mhRpuYrcCk4saa2UlUt/F+eNfEWITQwkmxo/IiX3QUYV7hhkgo/7ufg55AEtx+dEXaqBBGDeIDlHubMvCbsI3yLMWZLSZqdMHDJ9ZkmXRhCKFElWzUDTSfHy6ypEcCeSyU396TH0vobQihwtSI73usgnSOx5MfthfkJw/Kv1sBysDDZze4KSqv7MwdC96KhfKL9hwWvnAmLCRwGGvZsQEt6uVtotAv8s2Pr3LTzFgoOx3clV7rrjq93aaz23SP3jsm4kEktaPe7UB9CjlHNwXK7+w1H1uZ/tXR4m87BxXIF+w5pPgIDpzwP4/zFq1R/ycKyh/tL4iUB5Jswm19bMgnB4Zp1Xpvn3kULc0r76BVOkEojzoHb5EBl0wZtHbhqbmRUP7Xk+VPr88uz1IowgKf22SMj+a1UGtG5Pxyl70ICJtiihojjomCcnKcwG4JIRQpDxRUi9/da946X1eVF50ysM2KiQwuTI1YVhnf25Rx7XQZ+yYf7y8UtPj8cmqw898fNl/fC7fWGbobM1h78A8nrII70YnZChgWnij4iD/vcC12nx0UJgNLkQ/bC7oa03fV6bsa0z/eL+oDfuuh/JPNmW13Gw41pD6/OedKr4Ay80F7gSBtmFEg6lrrDL1NGewG41K3xZoxqFNhHCOEpuZHw7CCpH51tPjJNVn7liTvW5L8/OYcwXkEAr7sKCaHhTalK2+cp0UIaWNCXm/NM+nDAgMmqAZsr+yNgQET3mjLw682io2hofzwUrdliySO1Su+77GSCj7ZGdqJKtnT6+mdtadbPj9cdKnbMjU/mhpn/VwtyQL206f6n++0/HDCSp3Eh3ioe6bym0X274P2giu91plFKurSg7O8+a7Wz9VGh/OmdOpvUk4U+f2A84jqA4eXui3nOy2TTbS9iDJmTS9UCt6OT9410W3/99wmY3mWwPY3USXbszgZcwM3xEDZ6eDOd1oudVte3ZmLEHpzd/7FLgvLMSApUSm72DX6TuwhoPzjiVJwbWC+4EYtp8ZvC40fT5Tm6l02F4TQAwOOyi87ikltCSFEmXJ31OorjIrwUFqHef+RgsLUCPxEsrFiWgJ++oZ52gqjIiFaRnZACMVEBoPf8XKP9WpfaYVRYdLz203qD4+zd3FyhVHBqlJv78kvzRQQewih+qp4fDtufPNYSWaiHD8lJT7UbtNRgDuyPBX3B/pDg93slQihc0eKcrQCBCOENsxzfcyrZyZWGBUUhxFCcVGDr0862NbP5cWnlz+SsUChSChD5zNbTAihX/sHVeHH7kuTBU1gH1eYGoGXXMyHETaGgPKmOz2+ObvQVxjd5EeiSoaJO3xPKvU+rzLb2IIUGrVTBgRSrj6cMkvDUK/tclunWJk6x0ob44DRFCWYSGiUMagFMvIMwmSc3e62c73YZdGpXe5PuSzg3JFBmyOoW/jpr7e60U9dRQhV5fHLEWmRxfcihCifGbuysfbyhtuElx1yWITQgfoUkic+QfmZAWPFN4TTYOt8HTU+HM4uUf2vkLZJPtqn9hBQNsQKa8kLGJG8bg4N+uYZrvX3UreFep9EpeyyuxWMhXJocMB7+8xOB2+bjImk7dnUtmbsoAwrptPBXeyyJCpp2T+v1O2DmWt1c4KSV1dVu21Mi9MiyKlioRwRGghq7rkjRexaQYnPIaGM7Ru76vQf7S/45VTZlx3FBxtS2cVQFRFEikyfoPzKgIJBOqf+74lyT2taolL2oj2HZMJI2t6g/N4+M4U/fNjv7kn6trMEX8KNrsZ0kjLWt7LZPf7B/JtBFI9wd4VLyWupScLnoZFnCCfHZ6HMWjDESGWW76R037aAd1+Rf5mJckzGWw/lk5cQQqRnq30ZvesgN0AslO+93aVE3TeNdrmXZynwc50OjoUy9akfXZGmVgS/vSefvMvp4M5u51UC6o/cBfnkIoEoF6xgwLO+77EaPWhKCKF7psZT/SkKRR56gzJsS6mXhMOfTrqZBgU1MMpmzApdZUQQSSXbYfdCA+5w4n7aQaNTh+Cr1w3GLJRJCEJPMVBmFYwt810hR/1rsymGxCqCMRngZSQ7kKbrUw9kkpfwXgJuZ6F8+B6XPt2xPI2616gNw88VhDKrYECIInkXtFkDCKmL+ySV2cHhzLXTZevmaIMCBfRmhNAfHswiFXpPg3g/7w3KoKtRHEQIUSuj08EJ6nN/f5jXDfA/dieOECLFEiuV9y9zKW1Pr6cxpHL/Elgoj5ZUbq1zfVHsxxAWEojfkV15Ttyfga+y0TmTclxGVhbKnStdy1pfM/0ZUF/ykFIZk8E2llXSOnQdsR76JJXZwckz182d2BdL4urBWYkzilQZGjmlc5L3Dtn2BmVwL5OPhPbsEhU57s99pWwfhBBlAZ3BGLMQQg8tcll/WKlM7j9gP0E+SBHmwtCYSmXvUEZokIeCU36y2RXSxC7lJBxZKB9f5YLy46tpKCcqXbtqkVIZZu2NtrzGag3YdiqMisZqDWubs5W5zFOjIpUxYK70ClhFd9TqYXdIfvn4FpENb1Amw0xJDC2d4hZKdu6IQLgJQuhz92iheaVu+yEY8D7CpuarVB4SyjdGKmMov7tXYGtRU6ICJ7ndplvKOORIic5C2btUHhLKlK7sdHDv7DULrp/k5EL7TgLKgp8o5SIRiTboRlkYZUET/nmsBDYSDbcJGDdFDu4Nyuwbwpn7p2vI0T9oLxDsSQUl11Xw4VrUH7nBH+9S+bVdedTbiTnEnGShPLpS+e09+ZRNMyU+tKsxvasxPS2BtlONnVR2OjjH2uwAQmeGnXHPQLDaxGy3vSxmjpiGNyizmh/MDfW5f/OYgPkCIUT5SwV9cosnuwQ8DunCCGgndOX/YHTloaWyuyLkdHCspotlKmYWuwcSqWAIGnyqC5VYKrONnXe5soNYKB8jdOWTjK48pFQm7T9OB8faVbHTkTWPkCJGcNUdiVR2Orgn12QF/gbntXP4IFuInqNeCk+KmIY3KFOuO4yw6kIlOfQvp8rwJbLxQbtb3sscd4Mr9GwhYoXHu4Ih+EmTYCWZxrZZKI+igtHdSNt/tDEu+w8L5TFVMH7t53bU6vuaMwHN2Um8KeYvA2taYMCEYRvmvEGZDX4A/JmT3Qy6TgeXnSTgX31zt5sJ83YzHUqBEHpiTRae1PEOZaeDU4TRvndWX8fvSzXGFMqsjaIw1eWguZFQ/rV/0Gy6bYH+iTVZgKjznZaf+0ohZuNS9zDDM7xBmfJOkRL35z43uzLLC4TQC+6OnCKhaAqSbj+AMvvxy2UBIkP7xxTKbCKmSe8yS7PTN0ZSGeN45R2af/dzy6fyfh/S/t2/Npt0elNfu/dDb1D+z00ew+2p6Lb3HxHY+ZG7FqeDgxhW8nuYX+6y+DgdnB9AuavRLfYfXpZ6TZiPq32lm+50hQQ5HdyYQnkBkWcOVMllATjg9sZA+XKP1ZoROWECOtTAu37A53W7OfpfT5Z7x6jIq96g7HRw1J4XA5H8kuBJVOwB5cq60EXHYCCEqJoYI7RgbLbRYSuj5e0Tue1zOrhfTpWxXyxCaJpZideon/tKDzakJqr4WI6XtrpCkVgok7JgSLty84xEPDvQIOdoRy3tb0cI7aob3HSyVsKxsGDcPWDCaqnhN3l/e4g3pxSkROBYcJF49dJtCCjPLqGDdDG/vj7qlot6pdeaFOOKCEMImXSuJYwVV/BpkpSNEMqsW5hy7Yq0YLCOa/FQBksTZpH3Ro27gWWEUD66gvZsFxHa8OeHhW3/WUlywdTdsYAynutPDhRCdBTlRMMdhtcYAsqwrxSckpV3uFmXnQ7us4OFVHkXCOX+5EAhJauofX1/S5bdpmMDjqeZeUvWVwPfDOvtg2Adu00HBuyrfaVs2JpJH5YaH3q+03LtdJndpgPBQL2O3aaD6OFnNhjtNh31QSKEppii7DYdxGoKmvPAyoYtNpC2SD2FOizPUuDw88dXZ9ptOjZOf1Yx716BTF5WKkeE8vVo7DYdJIB832NlXVr5yeH62JCrAxsbNmMKSIoKC2LjMI3aMLtNBwFugt6+5hmJdptOZGIyBc0/78i123RUAgHVZxiHQ0DZ6eA8RWIghNjU2YtdFsp+nJXkCkJHCOnUIc9sMFKEsvED5MRDZLMglKEbHvDlbSat+8oAWTqXe6xeskgQQrl63ibDRnGQZMC0CUIZupH5BNdTvASDDRBC0eFBeGUHPswq9rj0IYQgzJWFMqYNB0w/t8nIigNDbChEbA4kH7gFlCOEEqJl7z9S4GBipGBw0NAEoQwdQFv401YTazIf+Zl397rF8FCYYQ+HhvIbbR6dWEkxIT+cEEhW+2tb3qJJcZSeXZQaQaZOkKR4yu2D1DSI5/rec9EnykTwoj3nyPLU1jrDU+uy/3HIVWpDMH8OTr71EG839JTbB30gLe9Kr8faUxeYJJ939pp3LzTUV8VPzY+eXaK69/aEQw2pZCgwMMFTbh88F2TqhS6LJ/qpKXjBnnOoIbXtbsPT67Nx1D/m9gv2nJaapGlmZX1VfHdjBqiql7qFB/9wwDNw7XSZp0fD+F90FHnqMJLzvhaWGBrKTgfnJdrTnBz+3XGPhsCvjxa/3pr3YTsf6I25iRtPrct+lpHQ+KrUkDjgEwdEQdnp4BZPpnPT8QKnUcrYgO4hiQCDAxniPeQtUgeJA144IBbKTgcn6HnGgG6aroGl0MvD4NJfduVBFieb6DrkvVIHiQOeOOADlJ0ODqrZYfhSjVhF8KpqTX9LFqW9wbMvdFkeWZqCg3VIq6cn4qTzEgfEc8A3KDsd3B83Gj2VEyCRnRQTUpkbtWJaQvOMxMrcKMrCtZHIfRdPq9RT4oAXDvgMZaeD++lk6bo5WrZuAwllT+3U+NCn1tElXbzQJ12SOCCSA8OBMgz9bWfJmtlJVEaAJwQjhOaXq4dnURf5JlK33zkHhg9lzLgLXZZjK9Obpmtml6iK0yKUEUFyWUBaQuhkU9TCSbF2m+65TUaRO0I8ptSQOOArB0YByr4+0tf+kCpDyXvwz2226dhAC5Hjs4U1qFJ01Div7swdeYI7NSYcXu6xapQynNMh2Ic8iTPQ/vtRVxjMtdNlUJyFqtlA3gjtQw2pZGDj0RVpZLQM23+8nBkHUP7u+KAvCiIVwYEE/jm7TUeVEBDPd4Ay6Y76osPlGmTHaa0zkFmlbIdhn7naV1rLqak4QS+jYSi3EXVCTv9WZAP7sT2NYNSG3TPVlQ16ZouJrB3j6a5b//w4gDJmYstsvkARPnQ6uM2/QfnZDca2hQYyGc7p4N7da96zOPn4qnRBfyRAmRwNfNd2mw4bE/tbsuDXBj5oL4DKcXabDkI+zmwx7SXqXj68NAWHcULs0fWgERxSd+10WX9L1u6FBsHdwk8nS+02Hfi9zx0p2raAj738a1ve9STk1joD6ygFKM+1xpD1mWaXqCCWg5TKL9pz2hYaTjZn4mIuJ5sz1Ypgc3I4jtM6u91E/qLCjydKoYouWQLry45ioOrN3fmeqKI4eeMP3ZBx4x/v0xNZ8NltOrksYFJO1KJJcVAqvLtxsITKjlp9dHjQpju19VXxocEBbGwKO5rTwUHQEi42fNfE2JL0SKeDY6HcUpNE5lTq1CFQttTp4K5n0JiT+VqJUBb7u+OWDI0covwyE+Wzit2qiEBFPIQQLPoQrjTFFDWjSLV+rjYqLIgq1QDEIIQgBgiiAn88USqXBYBgxlK5MjdKPWDpL0iJ0ChlkDUMUC5IicBQttt0uMDSh+0FGqUszxC+qloTFxVclRcNEwQVPCYTVN2CboFxD+VIeSCWW+ka+fKpfJ21Tw4UIoRwYbvqQiXLeoAyDuCCTERPUL4OUErB8A7lJUSpkPqq+JT4UMDEx/t5wnA4KJyE/Fbw4QOUcdGm+qr4rCRXTTroD1L5YpclKSYEMu87V6ZX5fGFwRFCAOV9S5LDQwNxctFtedGTfys3TykYpJI2MVuB4fttZ0lEaCAUiIKRcfHVhtviyUp5QNVN/388QXkNo2BsulNL6sq5+nDA0KEGvgbuxnlaQKo1I5LdHXqBMg4oW8CpcQB7a51BLgvAE9ZSk5QQ7aoPpFOH4Mql13/eiyx7oI/lf/QNKIHIE7x0wGhfHeXLypNQxnrzqmoN/gzwowHKF7osD8xMhKuVuVGdK9Nf2spDGTJTqvL4WDx8C/xKC8TBGbVhZFlozEPInCeLVs4qVgGyYWRcBrdpusYQO/hx4kfc9MZ4grIXXRn4mKsPh+UYHOxY4tptOlKvhc5eFAy8/6vl1LhAHgtlDVHqSqcOwT/gjBAiq91FhweVZUaSxGChC5R8zUAZlxBp9Azli12WdwbqIT2/OSc0OOCnk6Uvb+OhDLpyUWoEWey+v4XPbQaLh1EbRhYBwvsNKMf6hwddOfCLJsWBOg4j4x+OaZquSY6ToEwURPT1OxYP5ScHstKxbBN8kBco47pK3qGsJmp4eoGyJT1ymtmtcghFz7ChDMmtGqUMYuRJKNdXxecTNR62LdBHhQ3WTaWkMoay08GpIviMEkxefvLgKidB2VXGE3NnJA0WfKSe53RwufrwZZWDZiadOqQgJeLMFv4nmnubMsjCskADO5rTwb3eyucZzC9X97dkwa8Iw7bvesY4pCf2NGVAQPruhQaE0LYF+pPNmTUDGZDkto8s3AiFhVrrDGD4u29aAvWNsboy/tGtpukeFQyou7BloKZ8fwsvSkld+dODvFK+2aY7u93U15wZKQ/E61JlblRWkvylrSYYgeThviXJkfLAUw9knt1ugkLD8NsGMDJW8QWpGsnMjsq940nBePTeNLx3gZc/vip9ZpFLI1xWGY9LMp87UlRTooJ6lWvnJFFJtU4Hx44GYzZWa6LDg5LjQjfO07bdbcA216t9pfNKYyqMCqhw/t1xy+wSFfzk7fFV6UunxOFyyBVGBd5xwpgdy9OAkupCJVnbE65e7LJUGBWwqXp7T36FUQHpjE4Hd6A+hQ2F/aKjqMKoAPvaPw4VVeYOVrZ9b5+5wqiABCqng3t1Z25lbhQ8l9Tdz27PnWziz8MTKR7CD7JUGPn9H/6JDBgZ612CVMG73MT/xxOUbyKbpEff+hyQoDzKWtCtP+X+SqEEZQnKfsIBCcp+MpH+KmvFv5cEZQnKfsIBCcp+MpHipZe/9pSgLEHZTzggQdlPJtJfZa349/p/qCDU/baBdwIAAAAASUVORK5CYII=;" vertex="1" parent="1">
          <mxGeometry x="919.65" y="340" width="90.38" height="30" as="geometry" />
        </mxCell>
        <mxCell id="sLUFw-evy7mvADKt9X_3-23" value="&lt;b&gt;Workspaces&lt;/b&gt;" style="text;html=1;align=center;verticalAlign=middle;whiteSpace=wrap;rounded=0;" vertex="1" parent="1">
          <mxGeometry x="775" y="440" width="60" height="30" as="geometry" />
        </mxCell>
        <mxCell id="sLUFw-evy7mvADKt9X_3-24" value="" style="outlineConnect=0;dashed=0;verticalLabelPosition=bottom;verticalAlign=top;align=center;html=1;shape=mxgraph.aws3.workspaces;fillColor=#D16A28;gradientColor=#F58435;gradientDirection=north;" vertex="1" parent="1">
          <mxGeometry x="750" y="400" width="35" height="40" as="geometry" />
        </mxCell>
        <mxCell id="sLUFw-evy7mvADKt9X_3-25" value="" style="outlineConnect=0;dashed=0;verticalLabelPosition=bottom;verticalAlign=top;align=center;html=1;shape=mxgraph.aws3.workspaces;fillColor=#D16A28;gradientColor=#F58435;gradientDirection=north;" vertex="1" parent="1">
          <mxGeometry x="785" y="400" width="35" height="40" as="geometry" />
        </mxCell>
        <mxCell id="sLUFw-evy7mvADKt9X_3-29" value="" style="outlineConnect=0;dashed=0;verticalLabelPosition=bottom;verticalAlign=top;align=center;html=1;shape=mxgraph.aws3.workspaces;fillColor=#D16A28;gradientColor=#F58435;gradientDirection=north;" vertex="1" parent="1">
          <mxGeometry x="820" y="399.5" width="35" height="40" as="geometry" />
        </mxCell>
        <mxCell id="sLUFw-evy7mvADKt9X_3-30" value="" style="rounded=1;whiteSpace=wrap;html=1;strokeColor=#d6b656;strokeWidth=3;fillColor=none;" vertex="1" parent="1">
          <mxGeometry x="1050" y="230" width="130" height="280" as="geometry" />
        </mxCell>
        <mxCell id="sLUFw-evy7mvADKt9X_3-31" value="" style="shape=flexArrow;endArrow=classic;html=1;rounded=0;entryX=-0.007;entryY=0.18;entryDx=0;entryDy=0;entryPerimeter=0;fillColor=#ffe6cc;strokeColor=#d79b00;" edge="1" parent="1" target="sLUFw-evy7mvADKt9X_3-30">
          <mxGeometry width="50" height="50" relative="1" as="geometry">
            <mxPoint x="650" y="280" as="sourcePoint" />
            <mxPoint x="1000.1700000000001" y="280.14" as="targetPoint" />
          </mxGeometry>
        </mxCell>
        <mxCell id="sLUFw-evy7mvADKt9X_3-32" value="&lt;b&gt;Network Hub&lt;/b&gt;" style="text;html=1;align=center;verticalAlign=middle;whiteSpace=wrap;rounded=0;" vertex="1" parent="1">
          <mxGeometry x="1060" y="230" width="80" height="30" as="geometry" />
        </mxCell>
        <mxCell id="sLUFw-evy7mvADKt9X_3-37" value="&lt;b&gt;Devops&lt;/b&gt;" style="image;aspect=fixed;html=1;points=[];align=center;fontSize=12;image=img/lib/azure2/devops/Azure_DevOps.svg;" vertex="1" parent="1">
          <mxGeometry x="785.0000000000001" y="215" width="32.5" height="32.5" as="geometry" />
        </mxCell>
        <mxCell id="sLUFw-evy7mvADKt9X_3-38" value="&lt;b&gt;Workbenches&lt;/b&gt;" style="sketch=0;aspect=fixed;pointerEvents=1;shadow=0;dashed=0;html=1;strokeColor=#d79b00;labelPosition=center;verticalLabelPosition=bottom;verticalAlign=top;align=center;fillColor=#ffe6cc;shape=mxgraph.azure.virtual_machine_feature" vertex="1" parent="1">
          <mxGeometry x="946.27" y="409.5" width="33.89" height="30.5" as="geometry" />
        </mxCell>
        <mxCell id="sLUFw-evy7mvADKt9X_3-41" value="&lt;b&gt;AWS VPC&lt;/b&gt;" style="sketch=0;points=[[0,0,0],[0.25,0,0],[0.5,0,0],[0.75,0,0],[1,0,0],[0,1,0],[0.25,1,0],[0.5,1,0],[0.75,1,0],[1,1,0],[0,0.25,0],[0,0.5,0],[0,0.75,0],[1,0.25,0],[1,0.5,0],[1,0.75,0]];outlineConnect=0;fontColor=#232F3E;fillColor=#8C4FFF;strokeColor=#ffffff;dashed=0;verticalLabelPosition=bottom;verticalAlign=top;align=center;html=1;fontSize=12;fontStyle=0;aspect=fixed;shape=mxgraph.aws4.resourceIcon;resIcon=mxgraph.aws4.vpc;" vertex="1" parent="1">
          <mxGeometry x="1095" y="350" width="40" height="40" as="geometry" />
        </mxCell>
        <mxCell id="sLUFw-evy7mvADKt9X_3-42" value="&lt;b&gt;Transit Gateway&lt;/b&gt;" style="sketch=0;points=[[0,0,0],[0.25,0,0],[0.5,0,0],[0.75,0,0],[1,0,0],[0,1,0],[0.25,1,0],[0.5,1,0],[0.75,1,0],[1,1,0],[0,0.25,0],[0,0.5,0],[0,0.75,0],[1,0.25,0],[1,0.5,0],[1,0.75,0]];outlineConnect=0;fontColor=#232F3E;fillColor=#8C4FFF;strokeColor=#ffffff;dashed=0;verticalLabelPosition=bottom;verticalAlign=top;align=center;html=1;fontSize=12;fontStyle=0;aspect=fixed;shape=mxgraph.aws4.resourceIcon;resIcon=mxgraph.aws4.transit_gateway;" vertex="1" parent="1">
          <mxGeometry x="1091.91" y="270" width="40" height="40" as="geometry" />
        </mxCell>
        <mxCell id="sLUFw-evy7mvADKt9X_3-51" style="edgeStyle=orthogonalEdgeStyle;rounded=0;orthogonalLoop=1;jettySize=auto;html=1;entryX=0.5;entryY=1;entryDx=0;entryDy=0;strokeWidth=3;fillColor=#ffe6cc;strokeColor=#d79b00;endArrow=none;endFill=0;" edge="1" parent="1" source="sLUFw-evy7mvADKt9X_3-46" target="sLUFw-evy7mvADKt9X_3-30">
          <mxGeometry relative="1" as="geometry">
            <Array as="points">
              <mxPoint x="1006" y="530" />
              <mxPoint x="1115" y="530" />
            </Array>
          </mxGeometry>
        </mxCell>
        <mxCell id="sLUFw-evy7mvADKt9X_3-46" value="" style="sketch=0;points=[[0,0,0],[0.25,0,0],[0.5,0,0],[0.75,0,0],[1,0,0],[0,1,0],[0.25,1,0],[0.5,1,0],[0.75,1,0],[1,1,0],[0,0.25,0],[0,0.5,0],[0,0.75,0],[1,0.25,0],[1,0.5,0],[1,0.75,0]];outlineConnect=0;fontColor=#232F3E;fillColor=#8C4FFF;strokeColor=#ffffff;dashed=0;verticalLabelPosition=bottom;verticalAlign=top;align=center;html=1;fontSize=12;fontStyle=0;aspect=fixed;shape=mxgraph.aws4.resourceIcon;resIcon=mxgraph.aws4.vpc;" vertex="1" parent="1">
          <mxGeometry x="990" y="470" width="31" height="31" as="geometry" />
        </mxCell>
        <mxCell id="sLUFw-evy7mvADKt9X_3-50" style="edgeStyle=orthogonalEdgeStyle;rounded=0;orthogonalLoop=1;jettySize=auto;html=1;entryX=0.5;entryY=1;entryDx=0;entryDy=0;strokeWidth=3;fillColor=#ffe6cc;strokeColor=#d79b00;endArrow=none;endFill=0;" edge="1" parent="1" source="sLUFw-evy7mvADKt9X_3-47" target="sLUFw-evy7mvADKt9X_3-30">
          <mxGeometry relative="1" as="geometry">
            <Array as="points">
              <mxPoint x="840" y="530" />
              <mxPoint x="1115" y="530" />
            </Array>
          </mxGeometry>
        </mxCell>
        <mxCell id="sLUFw-evy7mvADKt9X_3-47" value="" style="sketch=0;points=[[0,0,0],[0.25,0,0],[0.5,0,0],[0.75,0,0],[1,0,0],[0,1,0],[0.25,1,0],[0.5,1,0],[0.75,1,0],[1,1,0],[0,0.25,0],[0,0.5,0],[0,0.75,0],[1,0.25,0],[1,0.5,0],[1,0.75,0]];outlineConnect=0;fontColor=#232F3E;fillColor=#8C4FFF;strokeColor=#ffffff;dashed=0;verticalLabelPosition=bottom;verticalAlign=top;align=center;html=1;fontSize=12;fontStyle=0;aspect=fixed;shape=mxgraph.aws4.resourceIcon;resIcon=mxgraph.aws4.vpc;" vertex="1" parent="1">
          <mxGeometry x="824" y="470" width="31" height="31" as="geometry" />
        </mxCell>
        <mxCell id="sLUFw-evy7mvADKt9X_3-65" value="" style="sketch=0;points=[[0,0,0],[0.25,0,0],[0.5,0,0],[0.75,0,0],[1,0,0],[0,1,0],[0.25,1,0],[0.5,1,0],[0.75,1,0],[1,1,0],[0,0.25,0],[0,0.5,0],[0,0.75,0],[1,0.25,0],[1,0.5,0],[1,0.75,0]];outlineConnect=0;fillColor=#ffe6cc;strokeColor=#d79b00;dashed=0;verticalLabelPosition=bottom;verticalAlign=top;align=center;html=1;fontSize=12;fontStyle=0;aspect=fixed;shape=mxgraph.aws4.resourceIcon;resIcon=mxgraph.aws4.network_firewall;" vertex="1" parent="1">
          <mxGeometry x="660" y="137" width="43" height="43" as="geometry" />
        </mxCell>
        <mxCell id="sLUFw-evy7mvADKt9X_3-66" value="" style="endArrow=none;dashed=1;html=1;dashPattern=1 3;strokeWidth=2;rounded=0;entryX=0.5;entryY=1;entryDx=0;entryDy=0;entryPerimeter=0;exitX=0.277;exitY=0.992;exitDx=0;exitDy=0;exitPerimeter=0;fillColor=#ffe6cc;strokeColor=#d79b00;" edge="1" parent="1" source="sLUFw-evy7mvADKt9X_3-52" target="sLUFw-evy7mvADKt9X_3-65">
          <mxGeometry width="50" height="50" relative="1" as="geometry">
            <mxPoint x="790" y="380" as="sourcePoint" />
            <mxPoint x="840" y="330" as="targetPoint" />
          </mxGeometry>
        </mxCell>
        <mxCell id="sLUFw-evy7mvADKt9X_3-67" value="&lt;b&gt;Routes&lt;/b&gt;" style="sketch=0;outlineConnect=0;fontColor=#232F3E;gradientColor=none;fillColor=#8C4FFF;strokeColor=none;dashed=0;verticalLabelPosition=bottom;verticalAlign=top;align=center;html=1;fontSize=12;fontStyle=0;aspect=fixed;pointerEvents=1;shape=mxgraph.aws4.route_table;" vertex="1" parent="1">
          <mxGeometry x="1091.91" y="432.5" width="46.18" height="45" as="geometry" />
        </mxCell>
      </root>
    </mxGraphModel>
  </diagram>
</mxfile>
